# Blender 4.1.1
# www.blender.org
mtllib Ex_Test_Remeshed.mtl
o Explanatory_1_Remeshed
o Explanatory_C_Remeshed
o Ex_Test_Remeshed
v 1.024090 1.736930 0.708500
v 1.073001 1.688329 0.702093
v 1.118425 1.636878 0.694283
v 1.160435 1.585692 0.688261
v 1.245342 1.483557 0.689596
v 1.202623 1.534942 0.678600
v 1.359554 1.280299 0.784842
v 1.401084 1.230075 0.748086
v 1.446305 1.185156 0.710417
v 1.513587 1.103877 0.653347
v 1.487077 1.144421 0.678908
v 1.529934 1.061229 0.628112
v 0.837293 1.850202 0.755067
v 0.899762 1.818762 0.745712
v 0.958561 1.792572 0.826195
v 0.964093 1.781172 0.723258
v 1.024520 1.743722 0.819738
v 1.129826 1.635037 0.819946
v 1.082227 1.688768 0.820725
v 1.166866 1.580978 0.833062
v 1.202613 1.521517 0.842741
v 1.237770 1.459929 0.846288
v 1.315743 1.332491 0.820602
v 1.275381 1.394266 0.842338
v 1.535687 1.016159 0.606411
v 1.538240 0.968060 0.580508
v 0.767718 1.865961 0.834410
v 0.776696 1.870353 0.758090
v 0.828029 1.848352 0.844119
v 0.893134 1.827435 0.839090
v 0.942493 1.771955 0.977981
v 1.008983 1.713345 1.002979
v 1.061707 1.648913 1.022030
v 0.698086 1.840545 0.925803
v 0.754954 1.832007 0.939116
v 0.816041 1.812150 0.966048
v 0.879045 1.798253 0.972967
v 1.095313 1.584569 1.045144
v 1.109178 1.521109 1.062790
v 1.122030 1.448776 1.075019
v 1.135322 1.370005 1.081079
v 0.904152 1.599086 1.145734
v 0.948730 1.588303 1.138107
v 0.994476 1.557807 1.135807
v 1.041635 1.445728 1.139783
v 1.033398 1.504407 1.135030
v 1.053220 1.385877 1.140924
v 1.143201 1.300714 1.073824
v 1.158176 1.169058 1.044546
v 1.149879 1.234235 1.061031
v 1.170881 1.111562 1.020427
v 1.354835 0.831577 0.738580
v 0.678583 1.720462 1.060445
v 0.741367 1.640973 1.119887
v 0.797702 1.613358 1.139335
v 0.830106 1.486459 1.183197
v 0.849993 1.608552 1.146339
v 0.917865 1.485868 1.177071
v 0.875850 1.492725 1.178031
v 0.939428 1.389842 1.183750
v 0.957459 1.473555 1.171656
v 0.990864 1.394033 1.168712
v 0.990600 1.337452 1.169247
v 1.057458 1.320783 1.139337
v 0.989913 1.277711 1.167186
v 1.057821 1.257869 1.132535
v 1.058788 1.194211 1.121715
v 1.061344 1.129643 1.108543
v 1.185776 1.055323 0.992501
v 1.206792 1.000519 0.955472
v 1.232936 0.950760 0.912709
v 1.260047 0.903016 0.867702
v 1.289023 0.857002 0.819419
v 0.664614 1.561690 1.141779
v 0.586257 1.515999 1.146443
v 0.724837 1.515067 1.166034
v 0.765178 1.399021 1.193525
v 0.779337 1.489046 1.178735
v 0.711610 1.421696 1.186604
v 0.854319 1.391348 1.195172
v 0.814052 1.389729 1.194526
v 0.882958 1.309859 1.194126
v 0.895563 1.394146 1.192160
v 0.841439 1.304450 1.198314
v 0.929553 1.249004 1.182047
v 0.931709 1.317556 1.186546
v 0.876119 1.234367 1.192307
v 0.988687 1.215628 1.159819
v 0.927693 1.183316 1.175469
v 0.988528 1.152476 1.149331
v 0.991811 1.084776 1.133507
v 1.070402 1.061967 1.084440
v 1.081527 0.998881 1.058132
v 1.094860 0.939936 1.029155
v 1.107243 0.883372 0.999546
v 0.508722 1.495977 1.136091
v 0.578396 1.426670 1.166446
v 0.646067 1.380360 1.184224
v 0.651069 1.460064 1.171821
v 0.702514 1.347618 1.193565
v 0.638862 1.305904 1.192172
v 0.752198 1.323475 1.198654
v 0.799430 1.302529 1.201537
v 0.693539 1.277168 1.198336
v 0.740459 1.258810 1.199462
v 0.831169 1.234792 1.197038
v 0.779667 1.179237 1.196304
v 0.789465 1.240749 1.199073
v 0.876166 1.172071 1.184868
v 0.826693 1.172187 1.191806
v 0.928534 1.124711 1.165122
v 0.878656 1.054713 1.164294
v 0.877074 1.112331 1.175485
v 0.939774 1.003890 1.133761
v 0.932450 1.066450 1.151644
v 0.998264 1.021479 1.114073
v 1.007520 0.961730 1.091164
v 1.018507 0.901025 1.064864
v 1.030134 0.842140 1.036622
v 1.120579 0.827887 0.966702
v 1.134975 0.772736 0.931440
v 1.153764 0.718303 0.890300
v 0.465178 1.329966 1.164099
v 0.488601 1.402800 1.158057
v 0.553553 1.268755 1.181925
v 0.569986 1.344480 1.179206
v 0.622347 1.228989 1.191197
v 0.666132 1.129111 1.190865
v 0.680216 1.204892 1.195495
v 0.723198 1.115935 1.189783
v 0.729408 1.190707 1.198015
v 0.827363 1.108928 1.183871
v 0.775796 1.036491 1.175352
v 0.775039 1.108308 1.187755
v 0.826591 0.976828 1.155319
v 0.827086 1.041484 1.170221
v 0.886484 0.923226 1.126351
v 0.880763 0.989992 1.147323
v 0.946381 0.940275 1.112089
v 0.966466 0.813408 1.057469
v 0.953709 0.874769 1.086285
v 1.052584 0.729543 0.973299
v 1.041312 0.785650 1.006040
v 1.066953 0.676967 0.938639
v 0.433948 1.275606 1.160481
v 0.513376 1.149216 1.171589
v 0.534471 1.204212 1.179202
v 0.607637 1.157233 1.187297
v 0.596334 1.097986 1.178398
v 0.657237 1.002455 1.168258
v 0.661310 1.065244 1.179832
v 0.720286 0.982482 1.164283
v 0.719534 1.045407 1.179189
v 0.776527 0.973543 1.159679
v 0.831517 0.914950 1.135144
v 0.777656 0.914669 1.142261
v 0.894027 0.857613 1.100953
v 0.840171 0.852846 1.111199
v 0.907181 0.795094 1.071062
v 0.974307 0.757228 1.029490
v 0.916143 0.737112 1.042091
v 0.984623 0.701052 0.997171
v 1.000928 0.645826 0.960342
v 0.365086 1.181074 1.136098
v 0.390553 1.233165 1.151073
v 0.498329 1.086761 1.158152
v 0.587859 0.964832 1.147898
v 0.586315 1.036119 1.166606
v 0.660806 0.936824 1.148512
v 0.722754 0.920580 1.146765
v 0.667085 0.872123 1.126752
v 0.785318 0.853404 1.119697
v 0.729041 0.859235 1.123848
v 0.796312 0.793970 1.092827
v 0.739040 0.799298 1.099282
v 0.852225 0.788015 1.083062
v 0.806747 0.733187 1.063269
v 0.862896 0.671367 1.022385
v 0.862152 0.728611 1.051926
v 0.923241 0.680878 1.011869
v 0.941379 0.617437 0.969818
v 0.362392 1.102367 1.114957
v 0.488437 1.016778 1.138373
v 0.591915 0.887080 1.120622
v 0.676193 0.806587 1.099280
v 0.749063 0.741452 1.070811
v 0.685546 0.747239 1.071711
v 0.751315 0.684185 1.041373
v 0.804892 0.673661 1.032534
v 0.787774 0.613036 1.000254
v 0.355954 1.007970 1.073601
v 0.486556 0.928094 1.106165
v 0.601383 0.812533 1.090777
v 0.614769 0.745328 1.060932
v 0.628145 0.686881 1.033891
v 0.692585 0.692136 1.044342
v 0.737494 0.625423 1.009225
v 0.688790 0.635263 1.012978
v 0.507901 0.813578 1.063414
v 0.520067 0.731357 1.028414
v 0.546753 0.672742 1.008383
v 0.637925 0.632226 1.006302
v 0.587444 0.617891 0.990214
v 0.991127 1.450614 1.168176
v 0.878455 0.612439 0.987059
vn -0.4242 -0.5649 -0.7078
vn -0.4301 -0.8806 -0.1989
vn -0.6944 -0.7177 0.0517
vn -0.7245 0.0256 -0.6888
vn -0.5237 -0.4588 -0.7179
vn -0.7176 0.2311 -0.6570
vn -0.7147 0.1813 -0.6755
vn -0.5707 0.3495 -0.7431
vn -0.7044 -0.6836 -0.1909
vn -0.7827 -0.5807 -0.2240
vn -0.8164 -0.5773 -0.0169
vn -0.8152 -0.5729 -0.0854
vn -0.5875 -0.8074 0.0546
vn -0.8094 -0.1435 -0.5695
vn -0.7454 -0.6640 0.0591
vn -0.8391 -0.3198 -0.4402
vn -0.7155 0.1053 -0.6906
vn -0.6474 0.2807 -0.7086
vn -0.7704 -0.0279 -0.6370
vn -0.0176 -0.6645 -0.7471
vn -0.4392 0.1738 -0.8814
vn -0.8274 -0.2366 -0.5094
vn -0.7461 -0.0118 -0.6657
vn -0.7878 -0.0778 -0.6110
vn -0.2291 -0.2892 -0.9295
vn -0.5865 0.1335 -0.7989
vn -0.4670 0.2286 -0.8542
vn -0.7259 0.2534 -0.6394
vn 0.0199 -0.6731 -0.7393
vn -0.4740 -0.8784 0.0605
vn -0.8520 -0.4423 -0.2800
vn -0.6054 -0.7764 -0.1753
vn -0.3795 -0.9252 0.0015
vn -0.2848 -0.6354 -0.7177
vn -0.6114 -0.1907 -0.7680
vn -0.6577 0.2916 -0.6945
vn -0.8531 -0.3749 -0.3629
vn -0.5985 -0.0976 -0.7952
vn -0.6004 0.2187 -0.7692
vn -0.4941 -0.0739 -0.8662
vn -0.1836 -0.1092 -0.9769
vn -0.1939 -0.9310 -0.3094
vn -0.1725 -0.6578 -0.7332
vn -0.3211 0.1580 -0.9338
vn 0.0866 -0.2011 -0.9757
vn -0.6389 -0.2491 -0.7278
vn -0.0950 0.1827 -0.9786
vn 0.1208 -0.1349 -0.9835
vn -0.6337 0.2651 -0.7268
vn -0.0642 -0.2767 -0.9588
vn -0.2493 -0.9319 -0.2636
vn -0.6160 0.2479 -0.7477
vn -0.0900 -0.7043 -0.7042
vn -0.3302 -0.2634 -0.9064
vn -0.5946 0.1969 -0.7795
vn 0.0835 -0.3064 -0.9482
vn -0.1512 -0.2807 -0.9478
vn 0.1777 -0.4180 -0.8909
vn -0.2798 -0.0075 -0.9600
vn -0.1698 -0.0079 -0.9854
vn -0.3371 0.1950 -0.9211
vn -0.5994 0.0476 -0.7990
vn -0.0545 -0.1523 -0.9868
vn -0.4915 0.2524 -0.8335
vn -0.5919 0.1101 -0.7984
vn -0.0608 0.0377 -0.9974
vn -0.4123 -0.0532 -0.9095
vn 0.1555 -0.0997 -0.9828
vn -0.5583 0.3351 -0.7590
vn 0.1092 -0.3352 -0.9358
vn -0.0397 -0.1348 -0.9901
vn -0.0290 -0.0536 -0.9981
vn -0.2245 -0.0583 -0.9727
vn -0.2809 0.0552 -0.9581
vn -0.3600 0.2288 -0.9045
vn -0.2010 0.3307 -0.9221
vn -0.4376 0.1463 -0.8872
vn -0.2943 0.1107 -0.9493
vn -0.4276 0.1047 -0.8979
vn -0.5107 0.2728 -0.8153
vn 0.1555 0.0980 -0.9830
vn -0.6723 0.3127 -0.6710
vn -0.2208 0.1572 -0.9626
vn 0.0160 -0.0771 -0.9969
vn 0.1226 -0.2651 -0.9564
vn -0.0110 0.0343 -0.9994
vn 0.0370 -0.1443 -0.9888
vn 0.0742 -0.0912 -0.9931
vn 0.0226 0.4525 -0.8915
vn -0.0850 -0.0171 -0.9962
vn -0.1045 0.0335 -0.9940
vn -0.2090 0.1094 -0.9718
vn -0.4499 0.4011 -0.7979
vn -0.1839 0.2330 -0.9549
vn -0.3872 0.2689 -0.8819
vn 0.3185 0.2264 -0.9205
vn 0.1321 -0.1428 -0.9809
vn 0.0432 -0.0478 -0.9979
vn 0.1623 -0.1977 -0.9667
vn 0.1474 -0.2151 -0.9654
vn 0.1111 0.1446 -0.9832
vn 0.0955 0.0064 -0.9954
vn -0.5294 0.2895 -0.7974
vn 0.0850 -0.0965 -0.9917
vn 0.1821 0.1602 -0.9702
vn -0.1214 0.1044 -0.9871
vn 0.0292 0.0081 -0.9995
vn -0.1833 0.0545 -0.9816
vn -0.4167 0.3193 -0.8511
vn 0.0455 0.0226 -0.9987
vn -0.0755 0.1238 -0.9894
vn -0.1679 0.1904 -0.9672
vn -0.0628 0.0714 -0.9955
vn -0.2860 0.2733 -0.9184
vn -0.1557 0.1358 -0.9784
vn -0.2704 0.2356 -0.9335
vn -0.2511 0.1901 -0.9491
vn -0.4038 0.2984 -0.8648
vn 0.1752 -0.0217 -0.9843
vn -0.5479 0.3183 -0.7736
vn 0.1367 -0.0408 -0.9898
vn -0.0290 0.1600 -0.9867
vn 0.1993 0.0392 -0.9792
vn 0.2597 0.1450 -0.9548
vn 0.0342 0.0805 -0.9962
vn 0.0301 0.2052 -0.9782
vn 0.0856 0.0408 -0.9955
vn 0.1309 0.0157 -0.9913
vn -0.2000 0.2835 -0.9379
vn -0.3191 0.3850 -0.8660
vn 0.1432 0.3910 -0.9092
vn -0.0148 0.1155 -0.9932
vn 0.0378 0.2819 -0.9587
vn 0.0302 0.1569 -0.9871
vn -0.1094 0.2314 -0.9667
vn -0.3144 0.3520 -0.8816
vn -0.3075 0.3157 -0.8977
vn -0.2245 0.3669 -0.9028
vn -0.4453 0.3832 -0.8092
vn -0.4359 0.3560 -0.8266
vn 0.2240 0.2438 -0.9436
vn -0.0417 0.2765 -0.9601
vn 0.1386 0.3313 -0.9333
vn -0.2462 0.4687 -0.8484
vn 0.1319 0.2726 -0.9530
vn -0.0367 0.3439 -0.9383
vn 0.1061 0.1716 -0.9794
vn 0.0388 0.4363 -0.8990
vn -0.0355 0.2355 -0.9712
vn -0.1149 0.2900 -0.9501
vn -0.0588 0.4305 -0.9007
vn -0.2354 0.4127 -0.8799
vn -0.1332 0.3341 -0.9331
vn -0.1285 0.3814 -0.9154
vn 0.3975 0.3265 -0.8575
vn -0.2242 0.4419 -0.8686
vn -0.3448 0.4481 -0.8248
vn 0.2670 0.3831 -0.8843
vn -0.1288 0.4295 -0.8938
vn -0.0535 0.4572 -0.8878
vn -0.0478 0.3882 -0.9204
vn 0.0413 0.3881 -0.9207
vn 0.0441 0.3377 -0.9402
vn -0.3339 0.4183 -0.8447
vn 0.0966 0.4692 -0.8778
vn 0.0243 0.4784 -0.8778
vn 0.2555 0.3283 -0.9093
vn -0.1259 0.4896 -0.8628
vn 0.2486 0.4211 -0.8723
vn 0.1303 0.4289 -0.8939
vn -0.1391 0.4553 -0.8794
vn -0.0434 0.4831 -0.8745
vn 0.2205 0.4279 -0.8765
vn 0.1157 0.4461 -0.8875
vn 0.1793 0.4485 -0.8756
vn -0.2940 -0.9534 -0.0684
vn -0.8002 -0.5985 0.0383
vn -0.4052 0.0152 -0.9141
s 0
usemtl diffuse_0_0_0_255.003
f 43//1 32//1 33//1 44//1
f 31//2 37//2 30//2 15//2
f 19//3 17//3 1//3 2//3
f 70//4 69//4 9//4 11//4
f 46//5 44//5 33//5 38//5
f 73//6 72//6 12//6 25//6
f 10//7 12//7 72//7 71//7
f 121//8 122//8 144//8 142//8
f 33//9 32//9 17//9 19//9
f 33//10 19//10 18//10 38//10
f 21//11 20//11 4//11 6//11
f 22//12 21//12 6//12 5//12
f 15//13 16//13 1//13 17//13
f 48//14 24//14 23//14 50//14
f 3//15 18//15 19//15 2//15
f 41//16 40//16 21//16 22//16
f 11//17 10//17 71//17 70//17
f 95//18 71//18 72//18 120//18
f 49//19 7//19 8//19 51//19
f 57//20 55//20 36//20 37//20
f 67//21 68//21 91//21 90//21
f 22//22 24//22 48//22 41//22
f 69//23 51//23 8//23 9//23
f 49//24 50//24 23//24 7//24
f 61//25 58//25 43//25 44//25
f 50//26 49//26 68//26 67//26
f 92//27 116//27 91//27 68//27
f 25//28 26//28 52//28 73//28
f 54//29 35//29 36//29 55//29
f 30//30 14//30 16//30 15//30
f 38//31 18//31 20//31 39//31
f 31//32 15//32 17//32 32//32
f 14//33 30//33 29//33 13//33
f 43//34 42//34 31//34 32//34
f 47//35 45//35 39//35 40//35
f 121//36 120//36 72//36 73//36
f 40//37 39//37 20//37 21//37
f 64//38 47//38 40//38 41//38
f 93//39 92//39 51//39 69//39
f 45//40 62//40 204//40 46//40
f 61//41 60//41 83//41 58//41
f 35//42 27//42 29//42 36//42
f 42//43 57//43 37//43 31//43
f 88//44 90//44 111//44 89//44
f 78//45 77//45 79//45 76//45
f 46//46 38//46 39//46 45//46
f 136//47 133//47 134//47 132//47
f 100//48 98//48 99//48 79//48
f 70//49 71//49 95//49 94//49
f 59//50 56//50 57//50 42//50
f 30//51 37//51 36//51 29//51
f 93//52 69//52 70//52 94//52
f 53//53 34//53 35//53 54//53
f 204//54 61//54 44//54 46//54
f 92//55 68//55 49//55 51//55
f 78//56 55//56 57//56 56//56
f 59//57 42//57 43//57 58//57
f 76//58 74//58 53//58 54//58
f 86//59 60//59 62//59 63//59
f 86//60 82//60 83//60 60//60
f 91//61 115//61 111//61 90//61
f 64//62 41//62 48//62 66//62
f 83//63 80//63 59//63 58//63
f 93//64 117//64 116//64 92//64
f 66//65 48//65 50//65 67//65
f 103//66 84//66 106//66 108//66
f 63//67 62//67 45//67 47//67
f 125//68 123//68 124//68 126//68
f 142//69 143//69 120//69 121//69
f 78//70 76//70 54//70 55//70
f 56//71 59//71 80//71 81//71
f 81//72 80//72 84//72 103//72
f 62//73 60//73 61//73 204//73
f 85//74 86//74 63//74 65//74
f 114//75 115//75 91//75 116//75
f 155//76 137//76 157//76 158//76
f 67//77 90//77 88//77 66//77
f 88//78 89//78 85//78 65//78
f 65//79 64//79 66//79 88//79
f 118//80 117//80 93//80 94//80
f 149//81 146//81 147//81 148//81
f 73//82 52//82 122//82 121//82
f 111//83 113//83 109//83 89//83
f 77//84 81//84 103//84 102//84
f 79//85 99//85 74//85 76//85
f 131//86 105//86 108//86 107//86
f 56//87 81//87 77//87 78//87
f 102//88 100//88 79//88 77//88
f 187//89 186//89 188//89 196//89
f 83//90 82//90 84//90 80//90
f 106//91 84//91 82//91 87//91
f 109//92 87//92 85//92 89//92
f 162//93 142//93 144//93 163//93
f 112//94 138//94 135//94 136//94
f 116//95 117//95 139//95 114//95
f 183//96 182//96 164//96 166//96
f 126//97 97//97 98//97 101//97
f 105//98 104//98 100//98 102//98
f 98//99 97//99 75//99 99//99
f 124//100 96//100 97//100 126//100
f 149//101 148//101 128//101 151//101
f 129//102 127//102 101//102 104//102
f 94//103 95//103 119//103 118//103
f 98//104 100//104 104//104 101//104
f 166//105 146//105 149//105 168//105
f 110//106 106//106 87//106 109//106
f 103//107 108//107 105//107 102//107
f 82//108 86//108 85//108 87//108
f 118//109 119//109 140//109 141//109
f 105//110 131//110 129//110 104//110
f 132//111 134//111 107//111 110//111
f 112//112 136//112 132//112 113//112
f 110//113 107//113 108//113 106//113
f 138//114 114//114 139//114 137//114
f 113//115 132//115 110//115 109//115
f 114//116 138//116 112//116 115//116
f 115//117 112//117 113//117 111//117
f 118//118 141//118 139//118 117//118
f 123//119 125//119 147//119 145//119
f 119//120 95//120 120//120 143//120
f 125//121 126//121 101//121 127//121
f 133//122 153//122 130//122 134//122
f 147//123 146//123 165//123 145//123
f 166//124 164//124 165//124 146//124
f 128//125 129//125 131//125 130//125
f 150//126 151//126 153//126 152//126
f 128//127 148//127 127//127 129//127
f 147//128 125//128 127//128 148//128
f 138//129 137//129 155//129 135//129
f 159//130 140//130 160//130 161//130
f 184//131 171//131 185//131 193//131
f 134//132 130//132 131//132 107//132
f 170//133 169//133 150//133 152//133
f 151//134 128//134 130//134 153//134
f 154//135 133//135 136//135 135//135
f 159//136 157//136 141//136 140//136
f 137//137 139//137 141//137 157//137
f 159//138 176//138 158//138 157//138
f 142//139 162//139 160//139 143//139
f 140//140 119//140 143//140 160//140
f 183//141 166//141 168//141 167//141
f 170//142 152//142 154//142 156//142
f 167//143 169//143 171//143 184//143
f 205//144 178//144 180//144 181//144
f 169//145 167//145 168//145 150//145
f 172//146 173//146 170//146 156//146
f 168//147 149//147 151//147 150//147
f 186//148 187//148 185//148 175//148
f 154//149 152//149 153//149 133//149
f 155//150 156//150 154//150 135//150
f 177//151 186//151 175//151 174//151
f 161//152 179//152 176//152 159//152
f 155//153 158//153 172//153 156//153
f 172//154 158//154 176//154 174//154
f 192//155 191//155 182//155 183//155
f 178//156 179//156 161//156 180//156
f 180//157 162//157 163//157 181//157
f 192//158 184//158 193//158 199//158
f 179//159 177//159 174//159 176//159
f 189//160 188//160 186//160 177//160
f 174//161 175//161 173//161 172//161
f 175//162 185//162 171//162 173//162
f 173//163 171//163 169//163 170//163
f 161//164 160//164 162//164 180//164
f 198//165 202//165 195//165 196//165
f 197//166 198//166 196//166 188//166
f 192//167 183//167 167//167 184//167
f 189//168 178//168 205//168 190//168
f 194//169 200//169 199//169 193//169
f 194//170 193//170 185//170 187//170
f 178//171 189//171 177//171 179//171
f 197//172 188//172 189//172 190//172
f 194//173 195//173 201//173 200//173
f 196//174 195//174 194//174 187//174
f 202//175 203//175 201//175 195//175
f 27//176 28//176 13//176 29//176
f 4//177 20//177 18//177 3//177
f 63//178 47//178 64//178 65//178
