# Rhino

mtllib Mx3.mtl
usemtl diffuse_0
v 20.302576065063477 -19.884616851806641 30.108510990469405
v 10.24327239766717 -19.884616851806641 22.623392148759095
v 0.084794960916042328 -19.884616851806641 20.520442709922289
v -20.005796432495117 -19.884616851806641 31.005649415702415
v -9.9880248568952084 -19.884616851806641 23.356542858239369
v -20.005796432495117 -10.131392465904355 25.178952902504925
v -9.9880248568952084 -10.131392465904355 17.529846252429028
v 0.084794960916042328 -10.131392465904355 14.693746181289324
v 10.24327239766717 -10.131392465904355 16.796695635561601
v 20.302576065063477 -10.131392465904355 24.281814477271912
v 20.302576065063477 0.0059749670326709747 21.532026188557012
v 10.24327239766717 0.0059749670326709747 14.046907346846702
v 0.084794960916042328 0.0059749670326709747 11.94395781539705
v -20.005796432495117 0.0059749670326709747 22.429164613790025
v -9.9880248568952084 0.0059749670326709747 14.780057500649894
v 20.302576065063477 9.8979799877852201 24.097834981935485
v 20.302576065063477 19.767326354980469 30.108510990469405
v 10.24327239766717 9.8979799877852201 16.612716140225171
v 10.24327239766717 19.767326354980469 22.623392148759095
v 0.084794960916042328 9.8979799877852201 14.509766685952895
v 0.084794960916042328 19.767326354980469 20.520442709922289
v -20.005796432495117 19.767326354980469 31.005649415702415
v -20.005796432495117 9.8979799877852201 24.994973407168494
v -9.9880248568952084 9.8979799877852201 17.345866757092598
v -9.9880248568952084 19.767326354980469 23.356542858239369
v 15.282556533813477 -15.044510841369629 22.857510885156969
v 5.1654590517282486 -15.044510841369629 17.777607307958359
v -4.9630414098501205 -15.044510841369629 18.191612912175792
v -15.000130176544189 -15.044510841369629 23.720085701990907
v -15.000130176544189 -5.0722493603825569 19.058728244465325
v -4.9630414098501205 -5.0722493603825569 13.530255454650204
v 5.1654590517282486 -5.0722493603825569 13.116250097400366
v 15.282556533813477 -5.0722493603825569 18.196153674598978
v 15.282556533813477 4.9763370081782341 18.073500677708026
v 5.1654590517282486 4.9763370081782341 12.993597100509414
v -4.9630414098501205 4.9763370081782341 13.407602457759253
v -15.000130176544189 4.9763370081782341 18.936075247574372
v 15.282556533813477 14.830047130584717 22.734857888266021
v 5.1654590517282486 14.830047130584717 17.654954311067407
v -4.9630414098501205 14.830047130584717 18.068959915284839
v -15.000130176544189 14.830047130584717 23.597432705099955
v 15.282556533813477 -19.884616851806641 25.965082358862301
v 20.302576065063477 -15.044510841369629 27.000939516764074
v 15.282556533813477 -10.131392465904355 20.138385845664807
v 10.24327239766717 -15.044510841369629 19.51582067505376
v 5.1654590517282486 -19.884616851806641 20.885178781663686
v 5.1654590517282486 -10.131392465904355 15.058482268466197
v 0.084794960916042328 -15.044510841369629 17.412871236216962
v -9.9880248568952084 -15.044510841369629 20.248971384534034
v -4.9630414098501205 -19.884616851806641 21.299184385881119
v -4.9630414098501205 -10.131392465904355 15.472487810941729
v -20.005796432495117 -15.044510841369629 27.898077941997087
v -15.000130176544189 -19.884616851806641 26.827657175696235
v -15.000130176544189 -10.131392465904355 21.000960600756848
v -20.005796432495117 -5.0722493603825569 23.236720731439092
v -9.9880248568952084 -5.0722493603825569 15.587613803524658
v -15.000130176544189 0.0059749670326709747 18.251172003332456
v 0.084794960916042328 -5.0722493603825569 12.75151396391707
v -4.9630414098501205 0.0059749670326709747 12.722699213517339
v 10.24327239766717 -5.0722493603825569 14.854463464495772
v 5.1654590517282486 0.0059749670326709747 12.308693979751295
v 20.302576065063477 -5.0722493603825569 22.339582306206083
v 15.282556533813477 0.0059749670326709747 17.388597556949907
v 20.302576065063477 4.9763370081782341 22.21692930931513
v 15.282556533813477 9.8979799877852201 19.95440635032838
v 10.24327239766717 4.9763370081782341 14.731810467604822
v 0.084794960916042328 4.9763370081782341 12.628860967026117
v 5.1654590517282486 9.8979799877852201 14.874502773129768
v -4.9630414098501205 9.8979799877852201 15.288508315605302
v -9.9880248568952084 4.9763370081782341 15.464960806633709
v -20.005796432495117 4.9763370081782341 23.11406773454814
v -15.000130176544189 9.8979799877852201 20.816981105420421
v 10.24327239766717 14.830047130584717 19.393167678162811
v 20.302576065063477 14.830047130584717 26.878286519873125
v 15.282556533813477 19.767326354980469 25.965082358862301
v 0.084794960916042328 14.830047130584717 17.290218239326009
v 5.1654590517282486 19.767326354980469 20.885178781663686
v -9.9880248568952084 14.830047130584717 20.126318387643089
v -4.9630414098501205 19.767326354980469 21.299184385881119
v -20.005796432495117 14.830047130584717 27.775424945106135
v -15.000130176544189 19.767326354980469 26.827657175696235
vn -0.57045364379882813 0.44374364614486694 0.691139817237854
vn -0.3847595751285553 0.49868255853652954 0.77670830488204956
vn 0.034388389438390732 0.53995507955551147 0.84099107980728149
vn 0.57475268840789795 0.44212138652801514 0.68861311674118042
vn 0.41678175330162048 0.49111318588256836 0.76491880416870117
vn 0.60318845510482788 0.33748245239257813 0.72268199920654297
vn 0.44226518273353577 0.37921404838562012 0.81277191638946533
vn 0.036989778280258179 0.42218101024627686 0.90575653314590454
vn -0.40893039107322693 0.38580060005187988 0.82700294256210327
vn -0.59890186786651611 0.33883863687515259 0.72560656070709229
vn -0.63653695583343506 0.0080832624807953835 0.77120381593704224
vn -0.44236057996749878 0.0093617504462599754 0.89678841829299927
vn 0.040730729699134827 0.010393065400421619 0.99911612272262573
vn 0.64076119661331177 0.0080473842099308968 0.76769804954528809
vn 0.47729083895683289 0.0091781336814165115 0.87869745492935181
vn -0.59830778837203979 -0.34141898155212402 0.72488677501678467
vn -0.56831008195877075 -0.45048043131828308 0.68854272365570068
vn -0.40842831134796143 -0.38857477903366089 0.82595157623291016
vn -0.38297960162162781 -0.50574499368667603 0.77301269769668579
vn 0.03693569079041481 -0.4250723123550415 0.90440547466278076
vn 0.03420063853263855 -0.54716688394546509 0.83632451295852661
vn 0.57260864973068237 -0.44884577393531799 0.68604433536529541
vn 0.60259461402893066 -0.34005632996559143 0.72197049856185913
vn 0.44173520803451538 -0.38196390867233276 0.81177186965942383
vn 0.41489940881729126 -0.49814072251319885 0.76138973236083984
vn -0.53718531131744385 0.43244126439094543 0.72417294979095459
vn -0.17295476794242859 0.50484830141067505 0.84570372104644775
vn 0.23284167051315308 0.49849510192871094 0.83503735065460205
vn 0.54731595516204834 0.42909380793571472 0.71855670213699341
vn 0.59232020378112793 0.20964808762073517 0.77794885635375977
vn 0.25944846868515015 0.2506222128868103 0.93267089128494263
vn -0.19323970377445221 0.25455278158187866 0.94755542278289795
vn -0.5820881724357605 0.21155396103858948 0.78512310981750488
vn -0.58319902420043945 -0.20271754264831543 0.78662854433059692
vn -0.19377267360687256 -0.24399855732917786 0.95021939277648926
vn 0.26014333963394165 -0.24022220075130463 0.93521052598953247
vn 0.59343051910400391 -0.20088894665241241 0.77941250801086426
vn -0.53529810905456543 -0.43901160359382629 0.72161257266998291
vn -0.17214344441890717 -0.511863112449646 0.84164291620254517
vn 0.23177284002304077 -0.50548148155212402 0.83112561702728271
vn 0.54542040824890137 -0.43563777208328247 0.71605610847473145
vn -0.52955061197280884 0.45830327272415161 0.71381670236587524
vn -0.57818162441253662 0.41833236813545227 0.70050269365310669
vn -0.55775433778762817 0.35111132264137268 0.75208443403244019
vn -0.39123818278312683 0.47176924347877502 0.7901686429977417
vn -0.16967357695102692 0.53244084119796753 0.82928740978240967
vn -0.18203169107437134 0.41547182202339172 0.89120572805404663
vn 0.035077303647994995 0.51224243640899658 0.8581242561340332
vn 0.4236244261264801 0.46437174081802368 0.77775394916534424
vn 0.22851884365081787 0.525978684425354 0.81922250986099243
vn 0.24477259814739227 0.40971991419792175 0.87875819206237793
vn 0.58248025178909302 0.41676384210586548 0.69787150621414185
vn 0.53964763879776001 0.45485237240791321 0.70844179391860962
vn 0.56795185804367065 0.34819158911705017 0.74578368663787842
vn 0.62748086452484131 0.20269274711608887 0.75178682804107666
vn 0.46471488475799561 0.23009994626045227 0.85504037141799927
vn 0.605721116065979 0.0083328327164053917 0.79563337564468384
vn 0.039364662021398544 0.25914871692657471 0.96503490209579468
vn 0.26782324910163879 0.010034528560936451 0.96341580152511597
vn -0.43032404780387878 0.23450854420661926 0.87168055772781372
vn -0.19966030120849609 0.010199916549026966 0.97981208562850952
vn -0.62322866916656494 0.20356890559196472 0.75507992506027222
vn -0.59549236297607422 0.0084112295880913734 0.80331695079803467
vn -0.62433069944381714 -0.19505682587623596 0.75641518831253052
vn -0.55716609954833984 -0.35374689102172852 0.75128495693206787
vn -0.43132466077804565 -0.22475013136863708 0.87375420331954956
vn 0.039477899670600891 -0.24841181933879852 0.9678497314453125
vn -0.18177494406700134 -0.41834476590156555 0.88991320133209229
vn 0.24443471431732178 -0.41257521510124207 0.87751543521881104
vn 0.46575915813446045 -0.22051693499088287 0.85699516534805298
vn 0.62858062982559204 -0.19421634078025818 0.75310450792312622
vn 0.56736129522323608 -0.3508143424987793 0.74500370025634766
vn -0.38963678479194641 -0.47860917448997498 0.78683954477310181
vn -0.57627123594284058 -0.42478778958320618 0.6981881856918335
vn -0.52743822336196899 -0.46514150500297546 0.71095168590545654
vn 0.034906942397356033 -0.51928800344467163 0.85388612747192383
vn -0.16877782344818115 -0.53963303565979004 0.82480919361114502
vn 0.42193299531936646 -0.47116732597351074 0.77457982301712036
vn 0.22733739018440247 -0.53315180540084839 0.81490296125411987
vn 0.58056998252868652 -0.42320561408996582 0.69558286666870117
vn 0.53752464056015015 -0.46166747808456421 0.70564180612564087
f 26//26 45//45 2//2 42//42
f 26//26 42//42 1//1 43//43
f 26//26 43//43 10//10 44//44
f 26//26 44//44 9//9 45//45
f 27//27 48//48 3//3 46//46
f 27//27 46//46 2//2 45//45
f 27//27 45//45 9//9 47//47
f 27//27 47//47 8//8 48//48
f 28//28 51//51 7//7 49//49
f 28//28 49//49 5//5 50//50
f 28//28 50//50 3//3 48//48
f 28//28 48//48 8//8 51//51
f 29//29 54//54 6//6 52//52
f 29//29 52//52 4//4 53//53
f 29//29 53//53 5//5 49//49
f 29//29 49//49 7//7 54//54
f 30//30 57//57 14//14 55//55
f 30//30 55//55 6//6 54//54
f 30//30 54//54 7//7 56//56
f 30//30 56//56 15//15 57//57
f 31//31 56//56 7//7 51//51
f 31//31 51//51 8//8 58//58
f 31//31 58//58 13//13 59//59
f 31//31 59//59 15//15 56//56
f 32//32 61//61 13//13 58//58
f 32//32 58//58 8//8 47//47
f 32//32 47//47 9//9 60//60
f 32//32 60//60 12//12 61//61
f 33//33 63//63 12//12 60//60
f 33//33 60//60 9//9 44//44
f 33//33 44//44 10//10 62//62
f 33//33 62//62 11//11 63//63
f 34//34 66//66 12//12 63//63
f 34//34 63//63 11//11 64//64
f 34//34 64//64 16//16 65//65
f 34//34 65//65 18//18 66//66
f 35//35 68//68 20//20 67//67
f 35//35 67//67 13//13 61//61
f 35//35 61//61 12//12 66//66
f 35//35 66//66 18//18 68//68
f 36//36 70//70 15//15 59//59
f 36//36 59//59 13//13 67//67
f 36//36 67//67 20//20 69//69
f 36//36 69//69 24//24 70//70
f 37//37 72//72 23//23 71//71
f 37//37 71//71 14//14 57//57
f 37//37 57//57 15//15 70//70
f 37//37 70//70 24//24 72//72
f 38//38 75//75 19//19 73//73
f 38//38 73//73 18//18 65//65
f 38//38 65//65 16//16 74//74
f 38//38 74//74 17//17 75//75
f 39//39 77//77 21//21 76//76
f 39//39 76//76 20//20 68//68
f 39//39 68//68 18//18 73//73
f 39//39 73//73 19//19 77//77
f 40//40 79//79 25//25 78//78
f 40//40 78//78 24//24 69//69
f 40//40 69//69 20//20 76//76
f 40//40 76//76 21//21 79//79
f 41//41 81//81 22//22 80//80
f 41//41 80//80 23//23 72//72
f 41//41 72//72 24//24 78//78
f 41//41 78//78 25//25 81//81
