# Rhino

mtllib MX_poly.mtl
usemtl diffuse_0
v 0.65043987196440578 -0.22148186862119512 12.43653430648445
v 5.126473320500506 0.21763984869565947 8.6084516405448621
v 9.3317774620403746 0.63286478085237619 12.355457842167523
v 0.92009613697270609 5.0320744848744177 8.2325757506106569
v 5.8317431293220636 5.0264327509170066 4.5505571827442202
v 10.744394224741265 5.8578326861928058 8.5747123166169956
v 0.31558383385705979 9.6756290892221344 11.40126522962418
v 5.0092744942938454 10.486048123756369 8.547550979272069
v 10.552928709989288 11.549819961136679 13.129844889898358
v 3.2532578940633914 2.5735147051836229 7.1215932368272785
v 7.795823572078298 2.9264038027250083 7.1552667158826067
v 3.0282953054796287 7.5360676496872054 6.9331310985542665
v 8.1702357267872614 8.1254362873384736 7.4178582711033494
v 2.9311185903519377 -0.015926188625502057 9.8362413412765619
v 5.6618909095752148 2.6911498811664796 5.9195696311076924
v 3.3081074724581283 4.9831083176589965 5.7530625064255085
v 0.84153358579845927 2.5514284083753194 9.6826505191719114
v 7.1260616953713392 0.43750645642209163 9.7670617572342167
v 10.186286250869884 3.2393290711827567 9.8158699862379883
v 8.2234841967658383 5.337453385588435 5.9084513636288332
v 5.4535069269435015 7.729023148511498 5.8506395614064965
v 2.532622329299226 10.060113068805784 9.4371440867268621
v 0.72510045392027833 7.506858717128253 9.279867222413694
v 10.751309340336398 8.6268879604285829 10.128674784571169
v 7.9037157425219782 11.004859897740214 10.318363387551669
vn 0.61362826824188232 0.53421986103057861 0.58143740892410278
vn -0.055662728846073151 0.74056857824325562 0.66967141628265381
vn -0.60209405422210693 0.64953458309173584 0.4643140435218811
vn 0.71943813562393188 0.06185062974691391 0.69179713726043701
vn -0.029179865494370461 0.03980100154876709 0.99878144264221191
vn -0.72879159450531006 0.024965217337012291 0.68428033590316772
vn 0.62743556499481201 -0.48185750842094421 0.6116681694984436
vn 0.040877204388380051 -0.69492888450622559 0.71791565418243408
vn -0.49436315894126892 -0.63900244235992432 0.58930552005767822
vn 0.50588023662567139 0.51306241750717163 0.69343501329421997
vn -0.55805766582489014 0.57345414161682129 0.59976834058761597
vn 0.53552252054214478 -0.43216317892074585 0.72556918859481812
vn -0.46170809864997864 -0.54918450117111206 0.69657880067825317
vn 0.46692541241645813 0.61155450344085693 0.63873451948165894
vn -0.05656447634100914 0.63367193937301636 0.77153116464614868
vn 0.58661913871765137 0.059493295848369598 0.80767476558685303
vn 0.64943766593933105 0.44581547379493713 0.61601889133453369
vn -0.50920253992080688 0.68455260992050171 0.52163255214691162
vn -0.65626096725463867 0.54108899831771851 0.5258747935295105
vn -0.62052178382873535 0.020218459889292717 0.7839285135269165
vn 0.023239141330122948 -0.57343357801437378 0.81892240047454834
vn 0.49923986196517944 -0.55880385637283325 0.66219168901443481
vn 0.66790264844894409 -0.36142006516456604 0.65060096979141235
vn -0.57159674167633057 -0.51417058706283569 0.6394573450088501
vn -0.39042875170707703 -0.67094886302947998 0.63039112091064453
f 10//10 17//17 1//1 14//14
f 10//10 14//14 2//2 15//15
f 10//10 15//15 5//5 16//16
f 10//10 16//16 4//4 17//17
f 11//11 15//15 2//2 18//18
f 11//11 18//18 3//3 19//19
f 11//11 19//19 6//6 20//20
f 11//11 20//20 5//5 15//15
f 12//12 23//23 4//4 16//16
f 12//12 16//16 5//5 21//21
f 12//12 21//21 8//8 22//22
f 12//12 22//22 7//7 23//23
f 13//13 21//21 5//5 20//20
f 13//13 20//20 6//6 24//24
f 13//13 24//24 9//9 25//25
f 13//13 25//25 8//8 21//21
