# Blender 4.1.1
# www.blender.org
mtllib Explanatory_C_Remeshed.mtl
o Explanatory_1_Remeshed
o Explanatory_C_Remeshed
v 0.806542 1.831338 0.620600
v 0.811531 1.799780 0.544060
v 0.743138 1.854682 0.608302
v 0.745351 1.820197 0.540127
v 0.872398 1.777298 0.556821
v 0.871782 1.805735 0.638481
v 0.935570 1.747973 0.568474
v 0.935149 1.774659 0.655157
v 0.999613 1.710595 0.578606
v 0.999960 1.761479 0.759089
v 0.999984 1.734485 0.671385
v 1.120264 1.648574 0.803644
v 1.119480 1.633807 0.695799
v 1.060893 1.666956 0.585782
v 1.062713 1.709377 0.781468
v 1.061784 1.687202 0.685123
v 1.167412 1.573444 0.710363
v 1.166024 1.585418 0.825485
v 1.259824 1.458289 0.711162
v 1.206800 1.523069 0.843065
v 1.212837 1.516037 0.714332
v 1.295713 1.401058 0.722804
v 1.338444 1.345998 0.730892
v 1.352099 1.289949 0.771261
v 1.523399 1.030423 0.626373
v 0.795644 1.853880 0.707916
v 0.718984 1.882680 0.786215
v 0.777565 1.864404 0.810624
v 0.731764 1.870191 0.695783
v 0.864846 1.832162 0.722791
v 0.847414 1.838234 0.840988
v 0.933201 1.803836 0.737639
v 0.914514 1.804641 0.875280
v 0.980706 1.759974 0.907154
v 1.045623 1.700770 0.932453
v 1.104943 1.627016 0.952732
v 1.137562 1.548710 1.002033
v 1.236037 1.455706 0.867139
v 1.243656 1.384398 0.909801
v 1.245478 1.312344 0.957199
v 1.356135 1.229931 0.819082
v 1.413788 1.057392 0.755347
v 1.485749 0.947957 0.641132
v 1.537140 0.901820 0.541835
v 0.761027 1.826088 0.943453
v 0.701176 1.849584 0.891111
v 0.835706 1.752342 1.051494
v 1.024585 1.617473 1.083603
v 1.061882 1.549302 1.090215
v 1.142406 1.465187 1.038149
v 1.137662 1.383969 1.068528
v 1.206140 1.227064 1.005344
v 1.291119 1.137527 0.901588
v 1.428424 0.849932 0.663991
v 1.498703 0.812123 0.546835
v 0.678304 1.762743 1.015738
v 0.827598 1.613517 1.139415
v 0.757860 1.664779 1.108622
v 0.896898 1.684781 1.098404
v 0.952861 1.631709 1.119587
v 0.885760 1.580022 1.147200
v 1.001040 1.531370 1.126021
v 0.933377 1.462391 1.177317
v 0.942935 1.544321 1.151238
v 1.063944 1.463546 1.123669
v 1.059220 1.397982 1.133961
v 0.988704 1.381483 1.169430
v 0.993542 1.447392 1.159077
v 1.050985 1.335481 1.138400
v 1.129566 1.311950 1.086036
v 1.111154 1.246592 1.091891
v 1.092741 1.181234 1.097747
v 1.166874 1.149561 1.030032
v 1.221022 1.040635 0.952199
v 1.319040 0.943547 0.823708
v 0.542295 1.631957 1.082561
v 0.653043 1.636561 1.102287
v 0.624937 1.535630 1.144355
v 0.731857 1.571883 1.144365
v 0.700558 1.489514 1.168269
v 0.867058 1.488287 1.180978
v 0.772322 1.451469 1.182770
v 0.804281 1.526244 1.168062
v 0.883193 1.321442 1.193903
v 0.909218 1.391229 1.186678
v 0.812088 1.346892 1.198900
v 0.839204 1.417090 1.190665
v 0.951993 1.255230 1.175195
v 0.971518 1.318116 1.172959
v 1.042405 1.273183 1.142556
v 1.022666 1.215759 1.142640
v 1.002927 1.158334 1.142724
v 0.932666 1.193925 1.176706
v 1.066146 1.118541 1.099791
v 1.040944 1.057336 1.100293
v 1.134014 1.077815 1.042297
v 1.098916 1.007038 1.047066
v 1.175002 0.958560 0.968949
v 1.137311 0.880803 0.973437
v 1.240536 0.837399 0.860002
v 1.302660 0.715343 0.737552
v 0.491082 1.427509 1.152761
v 0.514198 1.514189 1.131979
v 0.675185 1.413761 1.181918
v 0.577810 1.377790 1.174485
v 0.601689 1.451451 1.164160
v 0.725778 1.313206 1.196153
v 0.745261 1.379876 1.192958
v 0.653048 1.342691 1.189033
v 0.794452 1.286865 1.197919
v 0.758887 1.165408 1.195912
v 0.706340 1.246701 1.199217
v 0.776976 1.226973 1.196769
v 0.863292 1.259276 1.195156
v 0.820647 1.094697 1.181661
v 0.834819 1.149542 1.186168
v 0.848991 1.204388 1.190676
v 0.983720 1.101339 1.141612
v 0.881952 1.034033 1.157557
v 0.898732 1.087048 1.163984
v 0.915513 1.140063 1.170411
v 1.020165 0.995621 1.094353
v 0.943412 0.980401 1.124222
v 0.963670 1.041093 1.133044
v 1.070730 0.939735 1.045208
v 0.998808 0.928505 1.083601
v 1.048141 0.870571 1.034931
v 1.113473 0.809765 0.963872
v 1.087546 0.740075 0.954531
v 1.187256 0.752645 0.875371
v 1.151653 0.680375 0.872874
v 1.237495 0.625390 0.759272
v 0.471822 1.354154 1.160220
v 0.536060 1.239794 1.178380
v 0.556064 1.307441 1.178861
v 0.453214 1.283854 1.164634
v 0.605779 1.147695 1.185038
v 0.619371 1.211357 1.188522
v 0.632963 1.275018 1.192005
v 0.691937 1.187435 1.194721
v 0.666630 1.070865 1.181227
v 0.679441 1.129281 1.187976
v 0.728644 1.001148 1.168699
v 0.738151 1.055112 1.178410
v 0.747657 1.109076 1.188121
v 0.869642 0.981497 1.146442
v 0.788555 0.936514 1.147575
v 0.799819 0.988652 1.159804
v 0.811084 1.040791 1.172033
v 0.927787 0.923010 1.111898
v 0.846259 0.873677 1.117828
v 0.858109 0.928217 1.133053
v 0.978894 0.863808 1.070391
v 0.962753 0.805930 1.053903
v 0.899571 0.810502 1.080018
v 0.915729 0.868164 1.096670
v 1.029788 0.802173 1.019418
v 1.015696 0.740717 0.998978
v 0.947841 0.745385 1.034872
v 1.064458 0.675656 0.937307
v 0.995380 0.677373 0.980428
v 1.124252 0.613632 0.859533
v 1.041376 0.611809 0.918778
v 1.109341 0.546572 0.828301
v 1.200446 0.548534 0.751344
v 0.400010 1.160223 1.143158
v 0.429779 1.221455 1.157322
v 0.519014 1.175292 1.175212
v 0.493355 1.064283 1.152102
v 0.506890 1.119742 1.163802
v 0.571734 0.984697 1.150434
v 0.582739 1.037204 1.163577
v 0.593745 1.089710 1.176721
v 0.649655 0.913492 1.139820
v 0.653350 0.965081 1.154750
v 0.657046 1.016669 1.169681
v 0.783628 0.885784 1.130571
v 0.717471 0.847925 1.119230
v 0.720441 0.898539 1.136973
v 0.723410 0.949153 1.154715
v 0.840877 0.820609 1.097125
v 0.775638 0.779212 1.088161
v 0.779671 0.832837 1.109757
v 0.889419 0.758999 1.058749
v 0.823804 0.720431 1.054709
v 0.833052 0.770097 1.075817
v 0.938719 0.689234 1.008845
v 0.871225 0.647455 1.008197
v 0.880325 0.704832 1.034428
v 0.972455 0.614334 0.953741
v 0.918274 0.627052 0.981986
v 1.018054 0.547099 0.889116
v 0.946564 0.548088 0.924082
v 1.010640 0.467431 0.833332
v 1.098938 0.474867 0.783127
v 0.370035 1.109275 1.118924
v 0.476476 1.014673 1.132246
v 0.457038 0.967981 1.109510
v 0.552691 0.889574 1.110968
v 0.557863 0.936883 1.130721
v 0.628816 0.815364 1.096160
v 0.641469 0.864353 1.119619
v 0.683191 0.745968 1.070184
v 0.703993 0.797223 1.096348
v 0.729200 0.683939 1.040645
v 0.755341 0.730382 1.064510
v 0.771703 0.613558 1.001165
v 0.800182 0.669736 1.029835
v 0.887815 0.563640 0.952609
v 0.838320 0.586956 0.977144
v 0.868802 0.496083 0.910302
v 0.931013 0.475990 0.875987
v 0.863737 0.412768 0.845220
v 0.940617 0.376539 0.779060
v 0.328486 1.062149 1.080238
v 0.442013 0.917220 1.081036
v 0.545948 0.841237 1.088807
v 0.612969 0.765022 1.070170
v 0.528779 0.789643 1.058742
v 0.587452 0.711747 1.037798
v 0.704048 0.634657 1.013293
v 0.636370 0.641546 1.010654
v 0.660472 0.693768 1.041467
v 0.681163 0.573643 0.977232
v 0.720307 0.486542 0.922726
v 0.802848 0.524842 0.944947
v 0.746227 0.552352 0.965170
v 0.785468 0.453514 0.892711
v 0.282905 1.014731 1.019663
v 0.423920 0.864738 1.047175
v 0.398014 0.807261 1.004003
v 0.500393 0.730752 1.020781
v 0.560292 0.653393 1.001978
v 0.535323 0.587588 0.962286
v 0.592714 0.515291 0.933297
v 0.612210 0.585232 0.977004
v 0.659149 0.507107 0.935178
v 0.577880 0.438313 0.881678
v 0.703516 0.403959 0.860151
v 0.641644 0.420613 0.871878
v 0.632083 0.308041 0.769164
v 0.219825 0.981091 0.919263
v 0.334304 0.744749 0.931560
v 0.466126 0.662608 0.975803
v 0.498114 0.502127 0.907882
v 0.538209 0.312838 0.773870
v 0.203467 0.934405 0.855799
v 0.387207 0.566290 0.900209
v 0.459778 0.396685 0.835036
v 0.438026 0.314908 0.766923
v 0.344112 0.468397 0.842048
v 0.345105 0.389382 0.804241
v 0.333538 0.318471 0.754583
v 0.689127 1.803837 0.956763
v 1.001517 1.572115 1.105948
v 0.831435 1.679211 1.097809
v 0.947632 1.585674 1.136261
v 0.891030 1.629595 1.124109
v 0.759359 1.741112 1.030462
vn -0.3710 -0.9025 0.2189
vn -0.3384 -0.8623 0.3767
vn -0.3742 0.0367 -0.9266
vn -0.5198 0.3369 -0.7851
vn -0.5259 -0.8475 -0.0719
vn -0.6041 -0.7758 0.1822
vn -0.6742 -0.0063 -0.7385
vn -0.3538 -0.3337 -0.8738
vn -0.5650 -0.7855 0.2527
vn -0.8045 -0.5900 0.0686
vn -0.8078 -0.5518 -0.2073
vn -0.6459 -0.7368 0.2000
vn -0.7236 -0.6746 -0.1460
vn -0.5392 0.2345 -0.8089
vn -0.8431 -0.3020 -0.4449
vn -0.7164 -0.6855 0.1300
vn -0.8922 -0.3947 -0.2195
vn -0.1363 -0.9432 -0.3030
vn -0.7006 0.2873 -0.6532
vn -0.6570 0.2735 -0.7025
vn -0.8666 -0.3870 -0.3150
vn -0.8101 -0.2247 -0.5416
vn -0.8132 -0.5816 0.0206
vn -0.7327 -0.1672 -0.6597
vn -0.8452 -0.5284 -0.0803
vn -0.8288 -0.4409 -0.3445
vn -0.7712 -0.1309 -0.6230
vn -0.8659 -0.1429 -0.4793
vn -0.6689 0.1816 -0.7209
vn -0.1861 0.0789 -0.9794
vn -0.6839 0.2067 -0.6996
vn -0.7486 0.3511 -0.5624
vn -0.3769 0.4038 -0.8336
vn -0.3854 -0.8233 -0.4167
vn -0.6316 -0.7685 -0.1027
vn -0.4091 -0.7738 -0.4835
vn -0.2898 -0.9547 0.0675
vn -0.6834 -0.4388 -0.5835
vn -0.4805 -0.3185 -0.8171
vn -0.3307 -0.9436 0.0177
vn -0.4057 -0.9134 -0.0327
vn -0.3580 0.1699 -0.9181
vn -0.2856 -0.8934 -0.3467
vn -0.4411 -0.7487 -0.4949
vn -0.6890 -0.5569 -0.4637
vn -0.6863 0.3092 -0.6583
vn 0.0498 -0.4918 -0.8693
vn -0.4366 0.3312 -0.8365
vn -0.6486 -0.1234 -0.7511
vn -0.7173 0.0257 -0.6963
vn 0.1885 -0.5119 -0.8381
vn 0.0813 -0.1873 -0.9789
vn 0.1329 -0.2415 -0.9613
vn -0.7152 0.2654 -0.6466
vn 0.1090 -0.3609 -0.9262
vn -0.2593 -0.0835 -0.9622
vn 0.1166 -0.7595 -0.6399
vn 0.2916 -0.6230 -0.7258
vn -0.1472 -0.3008 -0.9423
vn -0.3840 -0.3262 -0.8638
vn -0.4283 0.0293 -0.9032
vn -0.6307 0.1512 -0.7612
vn -0.3217 -0.9329 0.1621
vn -0.4037 -0.8601 0.3119
vn -0.5543 0.1325 -0.8217
vn -0.6312 0.2957 -0.7171
vn -0.5738 0.1737 -0.8004
vn -0.5851 0.2702 -0.7646
vn -0.4961 0.1125 -0.8609
vn 0.0316 -0.1406 -0.9896
vn -0.0668 0.2535 -0.9650
vn 0.0813 0.0661 -0.9945
vn -0.3035 0.1636 -0.9387
vn -0.4261 -0.1100 -0.8979
vn -0.0545 -0.3805 -0.9232
vn -0.3609 0.3061 -0.8809
vn -0.3881 -0.2738 -0.8800
vn -0.0503 0.0133 -0.9986
vn -0.0500 0.1848 -0.9815
vn -0.0930 -0.0986 -0.9908
vn -0.5663 -0.0622 -0.8219
vn -0.4506 0.2252 -0.8639
vn 0.1599 -0.1263 -0.9790
vn -0.6202 0.2334 -0.7489
vn 0.1262 -0.3719 -0.9197
vn 0.0436 -0.0302 -0.9986
vn 0.1719 -0.3583 -0.9177
vn -0.0090 -0.0125 -0.9999
vn 0.0949 -0.2734 -0.9572
vn 0.1982 0.3833 -0.9021
vn 0.0537 -0.1860 -0.9811
vn 0.1058 0.0404 -0.9936
vn -0.5551 0.3070 -0.7731
vn -0.0906 -0.0753 -0.9930
vn -0.1593 0.1430 -0.9768
vn -0.4075 0.2428 -0.8803
vn -0.2224 -0.0066 -0.9749
vn -0.3656 0.1079 -0.9245
vn -0.2666 0.2797 -0.9223
vn -0.2232 0.0432 -0.9738
vn -0.4753 0.1752 -0.8622
vn -0.2900 0.2177 -0.9319
vn -0.5065 0.2637 -0.8210
vn -0.0881 0.0702 -0.9936
vn 0.1377 -0.0942 -0.9860
vn 0.1237 0.0219 -0.9921
vn -0.3853 0.2776 -0.8801
vn 0.0462 0.1164 -0.9921
vn 0.1489 -0.2302 -0.9617
vn 0.1339 -0.1604 -0.9779
vn 0.0155 0.1902 -0.9816
vn 0.0822 -0.0991 -0.9917
vn -0.4120 0.3677 -0.8337
vn 0.0716 -0.0659 -0.9953
vn 0.1386 0.4481 -0.8832
vn -0.0412 0.0603 -0.9973
vn -0.0816 0.1280 -0.9884
vn 0.0040 0.0432 -0.9991
vn -0.1879 0.1523 -0.9703
vn -0.2876 0.2457 -0.9257
vn -0.1894 0.1913 -0.9631
vn -0.6567 0.3523 -0.6668
vn -0.2546 0.3106 -0.9158
vn -0.4721 0.2956 -0.8305
vn -0.4826 0.3843 -0.7870
vn -0.5895 0.3576 -0.7243
vn -0.1511 0.4596 -0.8752
vn 0.1478 0.3021 -0.9418
vn -0.6142 0.4059 -0.6768
vn 0.1415 -0.0063 -0.9899
vn -0.2284 0.3508 -0.9082
vn 0.1526 -0.0708 -0.9857
vn 0.1910 0.0201 -0.9814
vn 0.1720 0.1330 -0.9761
vn 0.3136 0.3662 -0.8761
vn 0.0175 0.1415 -0.9898
vn 0.4640 0.3855 -0.7976
vn 0.0787 0.1114 -0.9907
vn -0.0635 0.2140 -0.9748
vn -0.1607 0.2658 -0.9506
vn 0.3478 0.3885 -0.8533
vn -0.3020 0.3817 -0.8735
vn -0.1458 0.3108 -0.9392
vn -0.1087 0.4977 -0.8605
vn -0.3385 0.3456 -0.8752
vn -0.3486 0.5648 -0.7480
vn -0.4325 0.4377 -0.7882
vn -0.2410 0.5687 -0.7864
vn -0.5008 0.4786 -0.7212
vn -0.5507 0.3927 -0.7366
vn -0.4608 0.5294 -0.7124
vn 0.2919 0.1967 -0.9360
vn 0.2266 0.2429 -0.9432
vn 0.2718 0.4208 -0.8655
vn -0.1641 0.2498 -0.9543
vn 0.2435 0.1233 -0.9620
vn 0.4337 0.4036 -0.8056
vn 0.1915 0.1786 -0.9651
vn 0.0518 0.2644 -0.9630
vn 0.1265 0.2416 -0.9621
vn -0.0351 0.3266 -0.9445
vn -0.2063 0.5121 -0.8338
vn 0.0466 0.3014 -0.9524
vn 0.2240 0.4129 -0.8828
vn 0.1093 0.4225 -0.8998
vn 0.0541 0.3497 -0.9353
vn -0.0234 0.3954 -0.9182
vn -0.0405 0.3510 -0.9355
vn -0.0816 0.5129 -0.8546
vn -0.0918 0.4347 -0.8959
vn -0.1220 0.3899 -0.9127
vn -0.2676 0.4455 -0.8544
vn -0.1905 0.4065 -0.8936
vn -0.1934 0.4217 -0.8859
vn -0.2562 0.4360 -0.8627
vn -0.3195 0.4640 -0.8262
vn -0.2870 0.4975 -0.8186
vn -0.3771 0.4960 -0.7821
vn 0.0217 0.5942 -0.8040
vn 0.1238 0.2010 -0.9717
vn -0.1159 0.3710 -0.9214
vn 0.3777 0.3017 -0.8754
vn 0.0409 0.4542 -0.8900
vn 0.2791 0.3099 -0.9089
vn -0.0235 0.4783 -0.8779
vn 0.5599 0.4957 -0.6639
vn 0.6409 0.4126 -0.6473
vn 0.1757 0.4539 -0.8735
vn 0.1854 0.3540 -0.9167
vn 0.1474 0.5278 -0.8365
vn -0.1748 0.5447 -0.8202
vn 0.0694 0.4704 -0.8797
vn 0.0903 0.4002 -0.9120
vn 0.2525 0.4240 -0.8697
vn 0.0163 0.4402 -0.8978
vn 0.0879 0.5107 -0.8553
vn 0.0046 0.5065 -0.8622
vn -0.0494 0.4680 -0.8823
vn -0.2660 0.6357 -0.7246
vn -0.1482 0.6113 -0.7774
vn 0.3825 0.4062 -0.8299
vn 0.0250 0.6594 -0.7514
vn 0.2361 0.4643 -0.8536
vn 0.1631 0.4526 -0.8766
vn 0.2934 0.4035 -0.8666
vn 0.0837 0.4840 -0.8711
vn 0.0132 0.5347 -0.8450
vn -0.0488 0.5779 -0.8147
vn 0.1710 0.4806 -0.8601
vn 0.2914 0.4233 -0.8579
vn 0.0747 0.6324 -0.7711
vn 0.0624 0.5657 -0.8223
vn 0.1472 0.5838 -0.7985
vn -0.4481 -0.8550 0.2612
vn -0.4635 -0.8429 0.2732
vn -0.7189 -0.2071 -0.6635
vn -0.5359 -0.8127 0.2289
vn -0.0290 -0.3231 -0.9459
vn -0.1287 -0.3709 -0.9197
vn 0.0142 -0.6449 -0.7641
vn -0.0825 -0.7533 -0.6525
vn -0.0881 -0.4822 -0.8716
vn -0.4922 -0.2084 -0.8452
s 0
usemtl diffuse_0_0_0_255.002
f 26//1 1//1 6//1 30//1
f 2//2 1//2 3//2 4//2
f 89//3 69//3 90//3 88//3
f 129//4 158//4 157//4 128//4
f 32//5 10//5 34//5 33//5
f 9//6 14//6 16//6 11//6
f 72//7 71//7 40//7 52//7
f 49//8 62//8 255//8 48//8
f 10//9 32//9 8//9 11//9
f 12//10 13//10 17//10 18//10
f 36//11 12//11 18//11 37//11
f 10//12 11//12 16//12 15//12
f 36//13 35//13 15//13 12//13
f 122//14 95//14 96//14 97//14
f 51//15 50//15 20//15 38//15
f 16//16 13//16 12//16 15//16
f 22//17 39//17 38//17 19//17
f 46//18 27//18 28//18 45//18
f 100//19 43//19 54//19 130//19
f 128//20 99//20 75//20 100//20
f 18//21 20//21 50//21 37//21
f 70//22 51//22 38//22 39//22
f 17//23 21//23 20//23 18//23
f 71//24 70//24 39//24 40//24
f 20//25 21//25 19//25 38//25
f 39//26 22//26 23//26 40//26
f 73//27 52//27 24//27 41//27
f 24//28 52//28 40//28 23//28
f 97//29 96//29 53//29 74//29
f 117//30 114//30 88//30 93//30
f 42//31 75//31 99//31 98//31
f 101//32 54//32 44//32 55//32
f 159//33 158//33 161//33 187//33
f 47//34 31//34 33//34 59//34
f 35//35 34//35 10//35 15//35
f 33//36 34//36 60//36 59//36
f 27//37 29//37 26//37 28//37
f 49//38 36//38 37//38 65//38
f 257//39 255//39 62//39 64//39
f 31//40 28//40 26//40 30//40
f 33//41 31//41 30//41 32//41
f 121//42 93//42 91//42 92//42
f 47//43 45//43 28//43 31//43
f 34//44 35//44 48//44 60//44
f 35//45 36//45 49//45 48//45
f 131//46 130//46 54//46 101//46
f 258//47 256//47 47//47 59//47
f 157//48 154//48 153//48 127//48
f 69//49 66//49 50//49 51//49
f 96//50 73//50 41//50 53//50
f 56//51 58//51 79//51 77//51
f 82//52 108//52 104//52 80//52
f 104//53 106//53 78//53 80//53
f 100//54 75//54 25//54 43//54
f 58//55 57//55 83//55 79//55
f 63//56 68//56 67//56 85//56
f 254//57 46//57 45//57 259//57
f 259//58 45//58 47//58 256//58
f 63//59 81//59 61//59 64//59
f 68//60 62//60 49//60 65//60
f 69//61 89//61 67//61 66//61
f 72//62 52//62 73//62 94//62
f 29//63 3//63 1//63 26//63
f 1//64 2//64 5//64 6//64
f 71//65 91//65 90//65 70//65
f 100//66 130//66 129//66 128//66
f 95//67 94//67 73//67 96//67
f 127//68 125//68 98//68 99//68
f 72//69 92//69 91//69 71//69
f 86//70 108//70 82//70 87//70
f 147//71 180//71 143//71 148//71
f 140//72 142//72 137//72 138//72
f 121//73 92//73 118//73 120//73
f 66//74 67//74 68//74 65//74
f 257//75 258//75 59//75 60//75
f 153//76 156//76 150//76 126//76
f 68//77 63//77 64//77 62//77
f 110//78 86//78 84//78 114//78
f 145//79 115//79 149//79 144//79
f 87//80 81//80 63//80 85//80
f 69//81 51//81 70//81 90//81
f 124//82 118//82 94//82 95//82
f 135//83 133//83 102//83 105//83
f 125//84 97//84 74//84 98//84
f 80//85 78//85 77//85 79//85
f 110//86 107//86 108//86 86//86
f 76//87 78//87 106//87 103//87
f 113//88 112//88 107//88 110//88
f 82//89 80//89 79//89 83//89
f 201//90 217//90 199//90 202//90
f 87//91 82//91 83//91 81//91
f 139//92 112//92 140//92 138//92
f 128//93 157//93 127//93 99//93
f 85//94 84//94 86//94 87//94
f 93//95 121//95 116//95 117//95
f 124//96 95//96 122//96 123//96
f 89//97 84//97 85//97 67//97
f 93//98 88//98 90//98 91//98
f 152//99 146//99 123//99 150//99
f 114//100 84//100 89//100 88//100
f 72//101 94//101 118//101 92//101
f 118//102 124//102 119//102 120//102
f 126//103 122//103 97//103 125//103
f 116//104 111//104 113//104 117//104
f 135//105 105//105 109//105 139//105
f 138//106 137//106 168//106 134//106
f 126//107 150//107 123//107 122//107
f 140//108 111//108 145//108 142//108
f 103//109 106//109 105//109 102//109
f 106//110 104//110 109//110 105//110
f 144//111 143//111 176//111 141//111
f 107//112 109//112 104//112 108//112
f 154//113 157//113 158//113 159//113
f 139//114 109//114 107//114 112//114
f 220//115 218//115 203//115 223//115
f 117//116 113//116 110//116 114//116
f 116//117 115//117 145//117 111//117
f 113//118 111//118 140//118 112//118
f 120//119 115//119 116//119 121//119
f 123//120 146//120 119//120 124//120
f 120//121 119//121 149//121 115//121
f 162//122 131//122 101//122 132//122
f 152//123 150//123 156//123 151//123
f 127//124 153//124 126//124 125//124
f 129//125 160//125 161//125 158//125
f 160//126 129//126 130//126 131//126
f 188//127 208//127 185//127 189//127
f 175//128 174//128 200//128 171//128
f 164//129 162//129 132//129 165//129
f 134//130 135//130 139//130 138//130
f 155//131 181//131 151//131 156//131
f 134//132 136//132 133//132 135//132
f 167//133 136//133 134//133 168//133
f 170//134 168//134 137//134 173//134
f 198//135 200//135 199//135 216//135
f 144//136 141//136 142//136 145//136
f 198//137 229//137 215//137 197//137
f 141//138 173//138 137//138 142//138
f 148//139 143//139 144//139 149//139
f 152//140 147//140 148//140 146//140
f 230//141 216//141 199//141 217//141
f 184//142 155//142 154//142 159//142
f 177//143 147//143 152//143 151//143
f 210//144 207//144 208//144 188//144
f 156//145 153//145 154//145 155//145
f 194//146 212//146 193//146 192//146
f 190//147 161//147 160//147 163//147
f 212//148 211//148 209//148 193//148
f 164//149 192//149 163//149 162//149
f 162//150 163//150 160//150 131//150
f 194//151 192//151 164//151 195//151
f 169//152 196//152 166//152 170//152
f 197//153 169//153 172//153 171//153
f 244//154 232//154 220//154 233//154
f 149//155 119//155 146//155 148//155
f 170//156 166//156 167//156 168//156
f 243//157 231//157 219//157 232//157
f 172//158 169//158 170//158 173//158
f 176//159 143//159 180//159 175//159
f 175//160 171//160 172//160 176//160
f 177//161 179//161 180//161 147//161
f 188//162 191//162 209//162 210//162
f 179//163 174//163 175//163 180//163
f 219//164 217//164 201//164 218//164
f 203//165 218//165 201//165 204//165
f 179//166 178//166 202//166 174//166
f 183//167 182//167 204//167 178//167
f 183//168 178//168 179//168 177//168
f 210//169 226//169 227//169 207//169
f 186//170 185//170 206//170 182//170
f 183//171 181//171 186//171 182//171
f 191//172 188//172 189//172 187//172
f 184//173 186//173 181//173 155//173
f 189//174 185//174 186//174 184//174
f 187//175 189//175 184//175 159//175
f 161//176 190//176 191//176 187//176
f 193//177 209//177 191//177 190//177
f 190//178 163//178 192//178 193//178
f 239//179 240//179 237//179 225//179
f 173//180 141//180 176//180 172//180
f 181//181 183//181 177//181 151//181
f 215//182 196//182 169//182 197//182
f 205//183 223//183 203//183 206//183
f 200//184 198//184 197//184 171//184
f 207//185 221//185 205//185 208//185
f 229//186 198//186 216//186 242//186
f 247//187 242//187 216//187 230//187
f 234//188 233//188 222//188 236//188
f 202//189 199//189 200//189 174//189
f 238//190 249//190 245//190 235//190
f 211//191 226//191 210//191 209//191
f 223//192 205//192 221//192 222//192
f 204//193 201//193 202//193 178//193
f 220//194 232//194 219//194 218//194
f 206//195 203//195 204//195 182//195
f 235//196 236//196 224//196 237//196
f 227//197 224//197 221//197 207//197
f 208//198 205//198 206//198 185//198
f 211//199 212//199 214//199 213//199
f 213//200 228//200 226//200 211//200
f 231//201 230//201 217//201 219//201
f 241//202 246//202 238//202 240//202
f 252//203 251//203 245//203 249//203
f 222//204 233//204 220//204 223//204
f 251//205 248//205 234//205 245//205
f 224//206 236//206 222//206 221//206
f 227//207 225//207 237//207 224//207
f 228//208 225//208 227//208 226//208
f 235//209 245//209 234//209 236//209
f 244//210 233//210 234//210 248//210
f 246//211 250//211 249//211 238//211
f 240//212 238//212 235//212 237//212
f 252//213 249//213 250//213 253//213
f 30//214 6//214 8//214 32//214
f 6//215 5//215 7//215 8//215
f 50//216 66//216 65//216 37//216
f 7//217 9//217 11//217 8//217
f 83//218 57//218 61//218 81//218
f 64//219 61//219 258//219 257//219
f 58//220 259//220 256//220 57//220
f 56//221 254//221 259//221 58//221
f 61//222 57//222 256//222 258//222
f 60//223 48//223 255//223 257//223
