# Rhino

mtllib Mx2.mtl
usemtl diffuse_0
v 20.302576467822458 -19.88461685838449 30.149915500051907
v 10.262536578564974 -19.88461685838449 22.149915500051907
v 0.068381101950011569 -19.88461685838449 20.341799255655527
v -20.005796294776985 -19.88461685838449 31.015999178861065
v -9.9944637223191197 -19.88461685838449 22.949263588135096
v -20.005796294776985 -10.204404844250215 25.015999178861065
v -9.9944637223191197 -10.204404844250215 16.949263588135096
v 0.068381101950011569 -10.204404844250215 14.341799255655527
v 10.262536578564974 -10.204404844250215 16.149915500051907
v 20.302576467822458 -10.204404844250215 24.149915500051907
v 20.302576467822458 0.059906109813390174 21.149915500051907
v 10.262536578564974 0.059906109813390174 13.149915500051907
v 0.068381101950011569 0.059906109813390174 11.341799255655527
v -20.005796294776985 0.059906109813390174 22.015999178861065
v -9.9944637223191197 0.059906109813390174 13.949263588135096
v 20.302576467822458 9.8927683006261109 23.913100988150891
v 20.302576467822458 19.767326604513038 30.149915500051907
v 10.262536578564974 9.8927683006261109 15.913100988150891
v 10.262536578564974 19.767326604513038 22.149915500051907
v 0.068381101950011569 9.8927683006261109 14.10498474375451
v 0.068381101950011569 19.767326604513038 20.341799255655527
v -20.005796294776985 19.767326604513038 31.015999178861065
v -20.005796294776985 9.8927683006261109 24.779184666960049
v -9.9944637223191197 9.8927683006261109 16.71244907623408
v -9.9944637223191197 19.767326604513038 22.949263588135096
vn -0.56076043844223022 0.43620356917381287 0.70375716686248779
vn -0.36391469836235046 0.49070635437965393 0.7916901707649231
vn 0.033569227904081345 0.52653288841247559 0.84949171543121338
vn 0.56505602598190308 0.43466228246688843 0.70127052068710327
vn 0.39736303687095642 0.48345145583152771 0.77998542785644531
vn 0.59219229221343994 0.33039262890815735 0.73494833707809448
vn 0.4198615550994873 0.37102743983268738 0.82828432321548462
vn 0.035887587815523148 0.40743270516395569 0.91252982616424561
vn -0.38464409112930298 0.37723031640052795 0.8424643874168396
vn -0.58790296316146851 0.33164721727371216 0.73782122135162354
vn -0.62316697835922241 0.0041922107338905334 0.7820776104927063
vn -0.41315418481826782 0.004807762335985899 0.9106484055519104
vn 0.039123781025409698 0.0052167032845318317 0.99922072887420654
vn 0.62742084264755249 0.0041756811551749706 0.77866917848587036
vn 0.45044603943824768 0.0047210943885147572 0.89279115200042725
vn -0.5880010724067688 -0.33119931817054749 0.73794430494308472
vn -0.55872392654418945 -0.44288182258605957 0.70120131969451904
vn -0.38477140665054321 -0.37655887007713318 0.84270656108856201
vn -0.36240687966346741 -0.49770647287368774 0.78800350427627563
vn 0.035902861505746841 -0.4065898060798645 0.91290509700775146
vn 0.033403702080249786 -0.53371036052703857 0.84500735998153687
vn 0.5630183219909668 -0.4413282573223114 0.69874155521392822
vn 0.5922892689704895 -0.3299507200717926 0.735068678855896
vn 0.41998943686485291 -0.37038174271583557 0.82850843667984009
vn 0.3957207202911377 -0.49041777849197388 0.77646344900131226
f 2//2 1//1 10//10 9//9
f 3//3 2//2 9//9 8//8
f 7//7 5//5 3//3 8//8
f 6//6 4//4 5//5 7//7
f 14//14 6//6 7//7 15//15
f 7//7 8//8 13//13 15//15
f 13//13 8//8 9//9 12//12
f 12//12 9//9 10//10 11//11
f 12//12 11//11 16//16 18//18
f 20//20 13//13 12//12 18//18
f 15//15 13//13 20//20 24//24
f 23//23 14//14 15//15 24//24
f 19//19 18//18 16//16 17//17
f 21//21 20//20 18//18 19//19
f 25//25 24//24 20//20 21//21
f 22//22 23//23 24//24 25//25
