# Blender 4.1.1
# www.blender.org
mtllib Rot_ex_2_A_10_Remeshed.mtl
o Rot_ex_2_A_10_Remeshed
v -2.320134 -4.575500 5.793118
v -6.399498 12.752772 2.567324
v -5.515806 12.412089 2.935353
v -4.360435 12.055759 3.316765
v -3.031629 11.708683 3.450581
v -1.729511 11.470401 3.437642
v -0.451287 11.513811 3.554625
v 0.825188 11.842437 3.844599
v 2.186758 12.307568 4.041686
v 5.825208 13.672334 3.747083
v -7.111302 13.250937 3.719333
v -5.749895 12.809048 4.237905
v -4.533756 12.456632 4.584156
v -3.208896 12.189874 4.749150
v -1.836274 12.051370 4.821670
v -0.421017 12.079853 4.992931
v 0.959696 12.267805 5.201527
v 2.256820 12.576489 5.315860
v 3.496546 12.798169 4.123930
v 3.528783 12.990864 5.355687
v 4.661127 13.250762 3.996023
v 4.795352 13.458637 5.278368
v -6.176636 13.000780 5.406484
v -6.237868 12.792192 6.899870
v -4.720131 12.557322 5.854591
v -3.311313 12.277822 6.144947
v -1.862013 12.138492 6.377150
v -0.406658 12.125666 6.563422
v 0.956158 12.264834 6.668920
v 2.257015 12.543868 6.694319
v 3.539265 12.938228 6.683296
v 4.868623 13.446808 6.675859
v 6.397374 14.017288 6.890709
v -7.660211 13.210591 6.858263
v -8.416801 13.143918 8.070794
v -7.195888 12.654355 8.088741
v -5.979350 12.159446 8.225626
v -4.700987 11.638371 8.524426
v -4.803285 12.330840 7.213331
v -3.378651 11.937255 7.581217
v -1.949589 11.704830 7.894049
v -0.523303 11.638903 8.080757
v 0.861657 11.776425 8.137111
v 2.191999 12.103721 8.113663
v 3.475831 12.531469 8.067682
v 4.713291 13.046098 8.054301
v 5.911834 13.593692 8.071051
v 7.306794 14.236523 8.081147
v -8.338720 12.424005 9.315104
v -7.171025 11.852450 9.250273
v -5.959381 11.276243 9.367705
v -4.680758 10.646238 9.638953
v -3.378520 11.194638 8.892719
v -3.366826 10.076471 9.961524
v -2.026005 10.828403 9.198199
v -0.646209 10.687491 9.394382
v 0.748761 10.809792 9.467763
v 2.128302 11.179189 9.464608
v 3.454787 11.711553 9.425160
v 4.703182 12.294039 9.391915
v 5.874940 12.937509 9.390133
v 7.000347 13.665886 9.337798
v -8.821378 11.664701 10.256072
v -7.504790 10.890926 10.222760
v -6.176138 10.166108 10.311250
v -4.803127 9.395124 10.509280
v -3.412429 8.677249 10.761846
v -2.028863 9.593441 10.236319
v -0.659490 9.340776 10.443619
v 0.733659 9.425138 10.565204
v 2.146473 9.796333 10.612937
v 3.559195 10.417623 10.609512
v 4.922057 11.211703 10.560240
v 6.171000 12.016199 10.505619
v 7.359657 12.901147 10.436351
v -9.316689 10.714964 10.822057
v -7.981994 9.808565 10.863957
v -6.559043 8.914199 10.921431
v -5.093876 8.008230 11.019982
v -1.970919 7.995217 10.958017
v -0.477017 7.566422 11.148545
v 0.972765 7.629625 11.277616
v 2.387405 8.058349 11.355651
v 3.810094 8.748214 11.391215
v 5.248412 9.732620 11.350164
v 6.619571 10.829827 11.245421
v 7.899933 11.913173 11.097746
v -9.923519 9.778116 10.857137
v -8.608032 8.780026 10.962822
v -7.176643 7.743569 11.002224
v -5.680395 6.730205 11.007827
v -3.565398 7.094037 11.113774
v -1.932642 6.161444 11.167409
v 4.406055 7.101232 11.516459
v 5.914548 8.299229 11.521005
v 7.276919 9.592335 11.477910
v 8.584848 10.864890 11.328208
v 9.517127 10.033463 11.072572
v -11.498384 8.968659 9.600881
v -10.692744 9.189522 10.375489
v -9.456145 8.037629 10.426738
v -8.086646 6.886996 10.443570
v -4.118770 5.703397 10.938399
v -0.147989 5.417539 11.205394
v 1.477915 5.514515 11.288941
v 2.942607 6.196784 11.430709
v 5.688817 6.267288 11.198258
v 7.021089 7.527815 11.237882
v 8.251020 8.755585 11.236620
v 8.234504 7.191649 10.786574
v 9.370071 8.423642 10.692403
v 10.618700 9.593834 10.429485
v -11.184245 7.503111 8.582603
v -9.212478 6.495874 9.519342
v -10.248983 7.705361 9.696458
v -8.040444 5.232831 9.365050
v -6.678243 5.740395 10.392260
v -5.274563 4.609907 10.288116
v -2.424384 4.593013 10.853554
v 4.236388 4.983014 11.057403
v 5.937893 4.502882 10.569429
v 7.147040 5.944725 10.714102
v 8.532738 5.766110 10.079532
v 9.440792 6.997409 10.133259
v 10.410176 8.127516 10.067876
v 10.491253 6.863676 9.438909
v -10.113299 6.327935 8.571895
v -10.092572 5.347063 7.506484
v -9.121631 5.275332 8.547007
v -8.058418 4.188549 8.532618
v -6.780642 4.106087 9.361610
v -5.457903 3.015817 9.363177
v -2.669694 2.306300 9.961027
v -3.816556 3.483213 10.196259
v 4.800493 3.294868 10.377137
v 6.762819 3.380800 9.798526
v 7.667861 4.534001 9.928379
v 8.982250 4.391986 9.156129
v 9.735952 5.647421 9.321111
v 11.320336 6.625273 8.669137
v 10.707701 5.404243 8.452957
v -10.043565 4.432668 6.345651
v -9.157868 3.422968 6.482857
v -8.189671 3.264446 7.601524
v -9.133808 4.318869 7.585855
v -5.906178 1.986695 8.468926
v -6.964791 3.077594 8.525485
v -3.548052 0.955833 8.993838
v -4.410041 1.978570 9.233628
v -1.923202 1.106122 9.553330
v 0.026082 1.559328 10.043273
v 2.077037 1.644616 10.091559
v 4.070089 1.984132 10.000189
v 6.025401 2.185078 9.525112
v 7.686904 2.274893 8.802714
v 8.409849 3.396005 9.003968
v 10.150764 4.339225 8.284713
v 9.525301 3.202780 8.080562
v 10.997196 4.054464 7.249850
v -9.159191 2.500046 5.097255
v -7.501518 1.185509 6.372360
v -8.324237 2.329937 6.469140
v -7.185081 2.162477 7.596050
v -6.336508 0.993821 7.413346
v -5.077194 0.938121 8.256661
v -4.393065 -0.114632 7.937695
v -3.056412 -0.057234 8.583908
v -1.487241 -0.065331 9.022761
v 0.338417 0.149897 9.390605
v 2.104768 0.129030 9.383551
v 3.939484 0.610697 9.374168
v 3.891618 -0.582346 8.747750
v 5.682890 0.968525 9.054564
v 5.639303 -0.140719 8.476066
v 7.288972 1.035971 8.334842
v 9.013707 2.154415 7.835079
v 8.735912 1.107562 7.372612
v 10.542708 3.121299 7.041583
v 10.184485 2.179986 6.707110
v -8.472488 1.384554 4.950299
v -7.889152 0.274922 4.669006
v -6.833538 -0.052786 6.000955
v -5.649561 -0.146418 7.076741
v -3.995533 -1.158962 7.448087
v -2.678308 -1.068803 8.099279
v -1.176103 -1.159140 8.459661
v -0.932794 -2.211580 7.863467
v 0.493045 -1.141154 8.698842
v 0.719361 -2.326247 8.005157
v 2.326061 -2.174970 8.078609
v 2.141776 -1.106949 8.724498
v 3.927212 -1.751734 8.069180
v 5.681170 -1.260107 7.799326
v 7.133461 -0.196034 7.698426
v 7.162340 -1.235135 7.032398
v 8.557911 0.073327 6.829601
v 9.866405 1.191093 6.316545
v 9.687953 0.277144 5.802950
v -7.472171 -0.759800 4.270345
v -6.388742 -1.228720 5.450788
v -5.142731 -1.325219 6.570864
v -4.981675 -2.400209 5.861989
v -3.750020 -2.242653 6.820313
v -2.418716 -2.074519 7.539917
v -2.402294 -3.107911 6.837883
v -0.865062 -3.254968 7.180153
v 0.740162 -3.387168 7.310522
v 2.261930 -3.276266 7.375455
v 3.861233 -2.953212 7.355993
v 5.630661 -2.434262 7.090752
v 7.082226 -2.214009 6.450724
v 8.460665 -0.852322 6.291626
v 8.329943 -1.901313 5.687095
v 9.546897 -0.587068 5.288353
v 9.436658 -1.432896 4.762889
v -7.150475 -1.765826 3.770069
v -7.017754 -2.670131 3.068616
v -6.103994 -2.280476 4.842146
v -6.047815 -3.228611 4.098772
v -4.910395 -3.465648 5.071804
v -3.647427 -3.427660 6.001173
v -0.705900 -4.367323 6.419688
v 0.949448 -4.456931 6.577396
v 2.441861 -4.350050 6.636222
v 3.901766 -4.147569 6.556637
v 5.539455 -3.731044 6.291140
v 7.043865 -3.261607 5.795942
v 8.291573 -3.813515 4.424486
v 8.272302 -2.898795 5.061677
v 9.421368 -2.212923 4.200697
v -6.034371 -4.183609 3.340352
v -4.898109 -4.524561 4.226904
v -3.599655 -4.744593 5.005026
v -0.119076 -5.674736 5.531345
v 1.442258 -5.567937 5.779621
v 2.886511 -5.381742 5.864287
v 4.288473 -5.253595 5.689665
v 5.726572 -4.942515 5.398117
v 6.294183 -5.828794 4.528819
v 7.448650 -5.289478 4.190924
v 6.982872 -4.418097 5.075439
v 8.466688 -4.631075 3.752817
v -6.653022 -5.861696 1.320122
v -6.148457 -5.094265 2.463184
v -5.041222 -5.529004 3.304988
v -3.780783 -5.997728 3.852604
v -2.452489 -6.698213 3.950905
v -0.759281 -6.543816 4.658287
v 1.156842 -6.902191 4.652923
v 2.307119 -6.567719 4.967418
v 3.613438 -6.342079 5.021413
v 3.351601 -7.444117 4.163621
v 4.959177 -6.189250 4.816490
v 4.430585 -7.188998 4.202027
v 5.551266 -7.022785 4.011495
v 6.643878 -6.718138 3.764203
v 7.690362 -6.204542 3.461233
v 8.624799 -5.598260 3.028076
v 2.377669 3.354562 10.751474
v -5.480073 -6.438591 2.216665
v -4.263211 -6.986816 2.728762
v -3.151412 -7.591111 2.783827
v -1.321289 -7.493191 3.597423
v -0.496603 -8.161309 3.120113
v 1.207239 -8.261687 3.338505
v 0.420567 -7.519530 4.003122
v 2.246887 -7.832011 3.854631
v 4.038135 -8.428191 3.241836
v 3.036153 -8.655931 3.072969
v 5.024483 -8.216065 3.270010
v 6.050316 -8.015371 3.136895
v 7.016932 -7.660119 2.979738
v 7.900392 -7.153386 2.756868
v -0.156039 3.183228 10.675800
v 8.906932 -6.787116 2.118175
v -7.875188 13.475075 5.192566
v 6.497103 14.095174 5.439497
vn -0.3866 -0.9043 0.1808
vn -0.3425 -0.9113 0.2286
vn -0.2464 -0.9264 0.2848
vn -0.1383 -0.9258 0.3519
vn -0.0155 -0.9265 0.3761
vn 0.1212 -0.9378 0.3255
vn 0.2472 -0.9415 0.2292
vn 0.3199 -0.9340 0.1590
vn 0.3473 -0.9320 0.1035
vn -0.2910 -0.9565 0.0194
vn -0.2961 -0.9543 0.0400
vn -0.2033 -0.9780 0.0472
vn -0.1037 -0.9931 0.0544
vn 0.0002 -0.9991 0.0425
vn 0.1169 -0.9931 0.0136
vn 0.2212 -0.9751 -0.0119
vn 0.3020 -0.9528 -0.0312
vn 0.3604 -0.9246 0.1234
vn 0.3509 -0.9358 -0.0329
vn 0.3526 -0.9354 -0.0262
vn -0.2567 -0.9534 -0.1584
vn -0.2628 -0.9560 -0.1304
vn -0.2264 -0.8824 -0.4125
vn -0.2877 -0.8969 -0.3358
vn -0.1809 -0.9619 -0.2049
vn -0.0759 -0.9635 -0.2566
vn 0.0113 -0.9571 -0.2896
vn 0.1131 -0.9468 -0.3013
vn 0.2152 -0.9331 -0.2882
vn 0.2889 -0.9201 -0.2647
vn 0.3582 -0.9034 -0.2357
vn 0.3862 -0.9018 -0.1938
vn -0.3625 -0.7946 -0.4871
vn -0.2836 -0.7766 -0.5626
vn -0.2008 -0.7552 -0.6240
vn -0.1392 -0.8710 -0.4712
vn -0.0943 -0.7165 -0.6912
vn -0.0654 -0.8476 -0.5266
vn 0.0175 -0.8204 -0.5715
vn 0.1026 -0.8095 -0.5780
vn 0.2019 -0.8066 -0.5555
vn 0.2814 -0.8107 -0.5134
vn 0.3492 -0.8112 -0.4691
vn 0.4093 -0.8091 -0.4217
vn 0.4458 -0.8298 -0.3358
vn -0.3594 -0.6124 -0.7041
vn -0.2566 -0.6186 -0.7426
vn -0.1688 -0.5851 -0.7932
vn -0.0718 -0.5286 -0.8458
vn -0.0499 -0.6663 -0.7440
vn -0.0387 -0.4525 -0.8909
vn 0.0241 -0.6286 -0.7773
vn 0.1003 -0.6155 -0.7818
vn 0.1767 -0.6201 -0.7644
vn 0.2534 -0.6289 -0.7350
vn 0.3180 -0.6449 -0.6950
vn 0.3754 -0.6531 -0.6577
vn 0.4242 -0.6555 -0.6248
vn -0.2521 -0.4022 -0.8802
vn -0.1925 -0.4076 -0.8926
vn -0.1177 -0.3626 -0.9245
vn -0.0388 -0.2734 -0.9611
vn -0.0049 -0.1619 -0.9868
vn 0.0359 -0.3872 -0.9213
vn 0.1004 -0.3569 -0.9287
vn 0.1429 -0.3602 -0.9219
vn 0.1855 -0.3789 -0.9067
vn 0.2263 -0.4015 -0.8875
vn 0.2552 -0.4244 -0.8688
vn 0.2690 -0.4323 -0.8607
vn 0.0046 -0.0709 -0.9975
vn -0.0154 -0.0728 -0.9972
vn 0.0129 -0.0343 -0.9993
vn 0.0409 0.0526 -0.9978
vn 0.0472 -0.0623 -0.9969
vn 0.0691 -0.0024 -0.9976
vn 0.0766 -0.0012 -0.9971
vn 0.0621 -0.0366 -0.9974
vn 0.0449 -0.0773 -0.9960
vn 0.0539 -0.1229 -0.9910
vn 0.0445 -0.1731 -0.9839
vn 0.3134 0.3064 -0.8988
vn 0.2706 0.3233 -0.9068
vn 0.2357 0.3363 -0.9118
vn 0.2004 0.3491 -0.9154
vn 0.0748 0.1369 -0.9878
vn 0.0760 0.2064 -0.9755
vn -0.1317 0.1698 -0.9766
vn -0.0879 0.2177 -0.9721
vn -0.1451 0.1320 -0.9806
vn -0.1914 0.0728 -0.9788
vn -0.3895 0.2452 -0.8878
vn 0.5079 0.4793 -0.7157
vn 0.4464 0.5052 -0.7386
vn 0.4119 0.5057 -0.7580
vn 0.1853 0.3341 -0.9241
vn 0.0217 0.2401 -0.9705
vn -0.0354 0.2389 -0.9704
vn -0.2532 0.2857 -0.9243
vn -0.2094 0.3019 -0.9300
vn -0.3131 0.2657 -0.9118
vn -0.4168 0.3138 -0.8531
vn -0.3768 0.3471 -0.8588
vn 0.5708 0.5523 -0.6076
vn 0.5358 0.5502 -0.6405
vn 0.3730 0.4781 -0.7952
vn 0.5030 0.5334 -0.6800
vn 0.3282 0.4456 -0.8329
vn 0.1497 0.3455 -0.9264
vn -0.1526 0.3251 -0.9333
vn -0.3390 0.3591 -0.8695
vn -0.3010 0.3797 -0.8748
vn -0.4718 0.3765 -0.7973
vn -0.4476 0.3933 -0.8031
vn -0.5516 0.4092 -0.7268
vn 0.6047 0.5607 -0.5656
vn 0.4615 0.5084 -0.7270
vn 0.5750 0.5387 -0.6157
vn 0.2927 0.4307 -0.8537
vn 0.4208 0.4836 -0.7675
vn 0.1335 0.3809 -0.9149
vn 0.2651 0.4415 -0.8572
vn -0.1204 0.3588 -0.9256
vn -0.2659 0.3850 -0.8838
vn -0.4166 0.3939 -0.8193
vn -0.3901 0.4144 -0.8222
vn -0.5402 0.4106 -0.7345
vn -0.5318 0.4215 -0.7345
vn 0.6763 0.5645 -0.4733
vn 0.6483 0.5476 -0.5289
vn 0.5437 0.5300 -0.6507
vn 0.3871 0.4869 -0.7830
vn 0.5130 0.5110 -0.6898
vn 0.2444 0.4691 -0.8486
vn 0.3688 0.4889 -0.7906
vn 0.1234 0.4429 -0.8880
vn 0.0050 0.3613 -0.9324
vn 0.0027 0.4220 -0.9066
vn -0.1138 0.4198 -0.9004
vn -0.2507 0.4159 -0.8742
vn -0.3820 0.4282 -0.8190
vn -0.5126 0.4431 -0.7355
vn -0.5049 0.4493 -0.7371
vn -0.6223 0.4521 -0.6391
vn -0.6200 0.4569 -0.6378
vn 0.7389 0.5374 -0.4066
vn 0.6261 0.5223 -0.5789
vn 0.6047 0.5232 -0.6005
vn 0.7347 0.5145 -0.4422
vn 0.4843 0.5144 -0.7077
vn 0.3558 0.5064 -0.7854
vn 0.4747 0.5133 -0.7150
vn 0.2338 0.4934 -0.8378
vn 0.1189 0.4804 -0.8689
vn 0.0030 0.4716 -0.8818
vn -0.1270 0.4644 -0.8765
vn -0.2492 0.4568 -0.8539
vn -0.2586 0.4857 -0.8350
vn -0.1364 0.4947 -0.8583
vn -0.3898 0.4501 -0.8034
vn -0.4018 0.4742 -0.7834
vn -0.5168 0.4538 -0.7259
vn -0.6259 0.4501 -0.6370
vn -0.6339 0.4551 -0.6253
vn 0.7348 0.4885 -0.4707
vn 0.5960 0.5166 -0.6148
vn 0.3502 0.5253 -0.7755
vn 0.4733 0.5265 -0.7063
vn 0.2281 0.5184 -0.8241
vn 0.1125 0.5139 -0.8505
vn 0.1108 0.5477 -0.8293
vn 0.2288 0.5466 -0.8055
vn -0.0029 0.5106 -0.8598
vn -0.0084 0.5430 -0.8397
vn -0.1300 0.5248 -0.8413
vn -0.2692 0.5043 -0.8205
vn -0.4106 0.4869 -0.7709
vn -0.5313 0.4560 -0.7140
vn -0.5410 0.4658 -0.7002
vn -0.6540 0.4463 -0.6109
vn 0.7330 0.4772 -0.4847
vn 0.6026 0.5077 -0.6157
vn 0.4833 0.5336 -0.6940
vn 0.6153 0.5019 -0.6079
vn 0.3573 0.5411 -0.7612
vn 0.2308 0.5722 -0.7869
vn 0.3686 0.5607 -0.7415
vn 0.1107 0.5740 -0.8113
vn -0.0070 0.5653 -0.8249
vn -0.1211 0.5492 -0.8269
vn -0.2697 0.5240 -0.8079
vn -0.4097 0.4971 -0.7648
vn -0.5479 0.4622 -0.6973
vn -0.6713 0.4408 -0.5959
vn -0.6854 0.4237 -0.5921
vn 0.7473 0.4544 -0.4849
vn 0.6226 0.4922 -0.6083
vn 0.4929 0.5407 -0.6817
vn 0.0972 0.5980 -0.7955
vn 0.2147 0.6112 -0.7618
vn -0.0188 0.5855 -0.8105
vn -0.1377 0.5683 -0.8112
vn -0.2718 0.5384 -0.7976
vn -0.4065 0.4996 -0.7650
vn -0.5542 0.4641 -0.6910
vn -0.5642 0.4334 -0.7027
vn 0.6330 0.4832 -0.6048
vn 0.4964 0.5476 -0.6736
vn 0.3644 0.5988 -0.7132
vn 0.0558 0.6372 -0.7687
vn 0.1202 0.6539 -0.7469
vn -0.0531 0.6187 -0.7838
vn -0.1694 0.5898 -0.7896
vn -0.2961 0.5474 -0.7828
vn -0.4271 0.5003 -0.7531
vn -0.4486 0.4782 -0.7550
vn -0.3192 0.5369 -0.7809
vn -0.5816 0.4164 -0.6988
vn 0.6597 0.4398 -0.6094
vn 0.5084 0.5373 -0.6729
vn 0.3720 0.6139 -0.6962
vn 0.2477 0.6353 -0.7315
vn 0.1734 0.6933 -0.6995
vn -0.0042 0.6608 -0.7505
vn 0.0607 0.6950 -0.7165
vn -0.0961 0.6255 -0.7743
vn -0.2017 0.5880 -0.7833
vn -0.1181 0.6313 -0.7665
vn -0.0289 0.6728 -0.7392
vn -0.2177 0.5827 -0.7830
vn -0.3234 0.5278 -0.7854
vn -0.4520 0.4616 -0.7633
vn -0.5880 0.3968 -0.7048
vn 0.3539 -0.9322 -0.0760
s 0
usemtl diffuse_0_0_0_255
f 3//1 12//1 11//1 2//1
f 4//2 13//2 12//2 3//2
f 5//3 14//3 13//3 4//3
f 6//4 15//4 14//4 5//4
f 7//5 16//5 15//5 6//5
f 8//6 17//6 16//6 7//6
f 9//7 18//7 17//7 8//7
f 19//8 20//8 18//8 9//8
f 277//9 22//9 21//9 10//9
f 12//10 23//10 276//10 11//10
f 13//11 25//11 23//11 12//11
f 14//12 26//12 25//12 13//12
f 15//13 27//13 26//13 14//13
f 16//14 28//14 27//14 15//14
f 17//15 29//15 28//15 16//15
f 18//16 30//16 29//16 17//16
f 20//17 31//17 30//17 18//17
f 21//18 22//18 20//18 19//18
f 22//19 32//19 31//19 20//19
f 277//20 33//20 32//20 22//20
f 25//21 39//21 24//21 23//21
f 24//22 34//22 276//22 23//22
f 39//23 38//23 37//23 24//23
f 37//24 36//24 34//24 24//24
f 26//25 40//25 39//25 25//25
f 27//26 41//26 40//26 26//26
f 28//27 42//27 41//27 27//27
f 29//28 43//28 42//28 28//28
f 30//29 44//29 43//29 29//29
f 31//30 45//30 44//30 30//30
f 32//31 46//31 45//31 31//31
f 33//32 47//32 46//32 32//32
f 36//33 50//33 49//33 35//33
f 37//34 51//34 50//34 36//34
f 38//35 52//35 51//35 37//35
f 39//36 40//36 53//36 38//36
f 53//37 54//37 52//37 38//37
f 41//38 55//38 53//38 40//38
f 42//39 56//39 55//39 41//39
f 43//40 57//40 56//40 42//40
f 44//41 58//41 57//41 43//41
f 45//42 59//42 58//42 44//42
f 46//43 60//43 59//43 45//43
f 47//44 61//44 60//44 46//44
f 48//45 62//45 61//45 47//45
f 50//46 64//46 63//46 49//46
f 51//47 65//47 64//47 50//47
f 52//48 66//48 65//48 51//48
f 54//49 67//49 66//49 52//49
f 55//50 68//50 54//50 53//50
f 68//51 80//51 67//51 54//51
f 56//52 69//52 68//52 55//52
f 57//53 70//53 69//53 56//53
f 58//54 71//54 70//54 57//54
f 59//55 72//55 71//55 58//55
f 60//56 73//56 72//56 59//56
f 61//57 74//57 73//57 60//57
f 62//58 75//58 74//58 61//58
f 64//59 77//59 76//59 63//59
f 65//60 78//60 77//60 64//60
f 66//61 79//61 78//61 65//61
f 67//62 92//62 79//62 66//62
f 80//63 93//63 92//63 67//63
f 69//64 81//64 80//64 68//64
f 70//65 82//65 81//65 69//65
f 71//66 83//66 82//66 70//66
f 72//67 84//67 83//67 71//67
f 73//68 85//68 84//68 72//68
f 74//69 86//69 85//69 73//69
f 75//70 87//70 86//70 74//70
f 77//71 89//71 88//71 76//71
f 78//72 90//72 89//72 77//72
f 79//73 91//73 90//73 78//73
f 92//74 103//74 91//74 79//74
f 81//75 104//75 93//75 80//75
f 82//76 105//76 104//76 81//76
f 83//77 106//77 105//77 82//77
f 84//78 94//78 106//78 83//78
f 85//79 95//79 94//79 84//79
f 86//80 96//80 95//80 85//80
f 87//81 97//81 96//81 86//81
f 89//82 101//82 100//82 88//82
f 90//83 102//83 101//83 89//83
f 91//84 117//84 102//84 90//84
f 103//85 118//85 117//85 91//85
f 93//86 119//86 103//86 92//86
f 104//87 274//87 119//87 93//87
f 95//88 108//88 107//88 94//88
f 107//89 120//89 106//89 94//89
f 96//90 109//90 108//90 95//90
f 97//91 98//91 109//91 96//91
f 112//92 111//92 109//92 98//92
f 100//93 101//93 115//93 99//93
f 102//94 114//94 115//94 101//94
f 117//95 116//95 114//95 102//95
f 119//96 134//96 118//96 103//96
f 105//97 259//97 274//97 104//97
f 106//98 120//98 259//98 105//98
f 108//99 110//99 122//99 107//99
f 122//100 121//100 120//100 107//100
f 109//101 111//101 110//101 108//101
f 111//102 125//102 124//102 110//102
f 124//103 123//103 122//103 110//103
f 115//104 114//104 127//104 113//104
f 116//105 129//105 127//105 114//105
f 117//106 118//106 131//106 116//106
f 131//107 130//107 129//107 116//107
f 134//108 132//108 131//108 118//108
f 274//109 133//109 134//109 119//109
f 121//110 135//110 259//110 120//110
f 122//111 123//111 137//111 121//111
f 137//112 136//112 135//112 121//112
f 124//113 126//113 139//113 123//113
f 139//114 138//114 137//114 123//114
f 140//115 141//115 139//115 126//115
f 129//116 130//116 145//116 128//116
f 131//117 132//117 147//117 130//117
f 147//118 144//118 145//118 130//118
f 134//119 133//119 149//119 132//119
f 149//120 146//120 147//120 132//120
f 274//121 151//121 150//121 133//121
f 150//122 148//122 149//122 133//122
f 153//123 152//123 259//123 135//123
f 136//124 154//124 153//124 135//124
f 137//125 138//125 156//125 136//125
f 156//126 155//126 154//126 136//126
f 139//127 141//127 157//127 138//127
f 157//128 158//128 156//128 138//128
f 145//129 144//129 143//129 142//129
f 144//130 163//130 162//130 143//130
f 147//131 146//131 163//131 144//131
f 149//132 148//132 165//132 146//132
f 165//133 164//133 163//133 146//133
f 150//134 168//134 167//134 148//134
f 167//135 166//135 165//135 148//135
f 151//136 169//136 168//136 150//136
f 274//137 259//137 152//137 151//137
f 152//138 170//138 169//138 151//138
f 153//139 171//139 170//139 152//139
f 154//140 173//140 171//140 153//140
f 155//141 175//141 173//141 154//141
f 156//142 158//142 176//142 155//142
f 176//143 177//143 175//143 155//143
f 159//144 178//144 158//144 157//144
f 178//145 179//145 176//145 158//145
f 162//146 161//146 180//146 160//146
f 162//147 163//147 164//147 161//147
f 164//148 183//148 182//148 161//148
f 182//149 181//149 180//149 161//149
f 165//150 166//150 183//150 164//150
f 167//151 185//151 184//151 166//151
f 184//152 201//152 183//152 166//152
f 168//153 186//153 185//153 167//153
f 169//154 188//154 186//154 168//154
f 170//155 191//155 188//155 169//155
f 171//156 172//156 191//156 170//156
f 173//157 174//157 172//157 171//157
f 174//158 193//158 192//158 172//158
f 192//159 190//159 191//159 172//159
f 175//160 194//160 174//160 173//160
f 194//161 195//161 193//161 174//161
f 177//162 196//162 194//162 175//162
f 179//163 197//163 177//163 176//163
f 197//164 198//164 196//164 177//164
f 182//165 200//165 199//165 181//165
f 183//166 201//166 200//166 182//166
f 185//167 204//167 203//167 184//167
f 203//168 202//168 201//168 184//168
f 186//169 187//169 204//169 185//169
f 188//170 189//170 187//170 186//170
f 189//171 207//171 206//171 187//171
f 206//172 205//172 204//172 187//172
f 191//173 190//173 189//173 188//173
f 190//174 208//174 207//174 189//174
f 192//175 209//175 208//175 190//175
f 193//176 210//176 209//176 192//176
f 195//177 211//177 210//177 193//177
f 196//178 212//178 195//178 194//178
f 212//179 213//179 211//179 195//179
f 198//180 214//180 212//180 196//180
f 200//181 218//181 216//181 199//181
f 201//182 202//182 218//182 200//182
f 203//183 221//183 220//183 202//183
f 220//184 219//184 218//184 202//184
f 204//185 205//185 221//185 203//185
f 206//186 222//186 1//186 205//186
f 1//187 233//187 221//187 205//187
f 207//188 223//188 222//188 206//188
f 208//189 224//189 223//189 207//189
f 209//190 225//190 224//190 208//190
f 210//191 226//191 225//191 209//191
f 211//192 227//192 226//192 210//192
f 213//193 229//193 227//193 211//193
f 214//194 215//194 213//194 212//194
f 215//195 230//195 229//195 213//195
f 218//196 219//196 217//196 216//196
f 220//197 232//197 231//197 219//197
f 221//198 233//198 232//198 220//198
f 223//199 235//199 234//199 222//199
f 234//200 248//200 1//200 222//200
f 224//201 236//201 235//201 223//201
f 225//202 237//202 236//202 224//202
f 226//203 238//203 237//203 225//203
f 227//204 241//204 238//204 226//204
f 229//205 228//205 241//205 227//205
f 242//206 240//206 241//206 228//206
f 232//207 245//207 244//207 231//207
f 233//208 246//208 245//208 232//208
f 1//209 247//209 246//209 233//209
f 235//210 250//210 249//210 234//210
f 249//211 266//211 248//211 234//211
f 236//212 251//212 250//212 235//212
f 237//213 253//213 251//213 236//213
f 238//214 239//214 253//214 237//214
f 241//215 240//215 239//215 238//215
f 240//216 257//216 256//216 239//216
f 256//217 255//217 253//217 239//217
f 242//218 258//218 257//218 240//218
f 244//219 245//219 260//219 243//219
f 246//220 261//220 260//220 245//220
f 247//221 262//221 261//221 246//221
f 1//222 248//222 263//222 247//222
f 266//223 264//223 263//223 248//223
f 250//224 252//224 267//224 249//224
f 267//225 265//225 266//225 249//225
f 251//226 254//226 252//226 250//226
f 253//227 255//227 254//227 251//227
f 254//228 270//228 268//228 252//228
f 268//229 269//229 267//229 252//229
f 255//230 271//230 270//230 254//230
f 256//231 272//231 271//231 255//231
f 257//232 273//232 272//232 256//232
f 258//233 275//233 273//233 257//233
f 9//234 21//234 19//234
