# Rhino

mtllib tri_dome.mtl
usemtl diffuse_Black
v 1.3757739328568377 -0.85983627757861836 -5.091613756526594
v 1.5594568514054217 -0.85983627757861836 -3.9609781373630808
v 1.5594568514054217 -0.85983627757861836 -6.2222493756901072
v 1.5941832327073016 0.73171925509885383 -5.64564816843379
v 1.6322601103012957 0.86762607815775206 -4.5623229612003611
v 1.9264691137497816 2.355688179670802 -5.1882964615117357
v 1.9264691137497816 0.73171925509885383 -6.6683175433765705
v 1.9718172811692156 0.86762607815775206 -3.5172726977955149
v 1.9767134451096458 1.9986399057325501 -6.0866743792187021
v 2.0754251741593275 -0.85983627757861836 -2.938308702815656
v 2.0754251741593275 -0.85983627757861836 -7.2449188102375324
v 2.1343240999405775 2.4915950027297002 -4.1477639545093821
v 2.4641180299942884 3.3593562139100541 -5.9283071030269907
v 2.4641180299942884 2.355688179670802 -6.8430105317722614
v 2.5777755045121107 0.73171925509885383 -2.618463503230696
v 2.5777755045121107 2.355688179670802 -3.1837811339985178
v 2.5940361284439954 3.7726700302691656 -4.8748229910026835
v 2.5940361284439954 0.86762607815775206 -7.5223653186451234
v 2.8885987066452894 -0.85983627757861836 -2.1315712798725408
v 2.8885987066452894 -0.85983627757861836 -8.0516562331806476
v 2.9335935377304945 3.7726700302691656 -3.8297726977955149
v 3.1464776062195696 1.9986399057325501 -2.486511217464094
v 3.1884463094895277 3.7726700302691656 -6.7042298186909015
v 3.2438862585251727 4.5628926513010111 -5.6749451030384348
v 3.2438862585251727 2.4915950027297002 -7.5626449454914386
v 3.4477100633805193 0.73171925509885383 -1.986418711055403
v 3.4477100633805193 3.3593562139100541 -2.9011223186146071
v 3.4830088876908216 4.7983029788903488 -4.5859781969677256
v 3.4830088876908216 0.86762607815775206 -8.1682422031055744
v 3.9071358703797259 -0.85983627757861836 -1.6074929107319158
v 3.9071358703797259 -0.85983627757861836 -8.5757346023212726
v 3.9296332859223284 4.5628926513010111 -3.5644326079975412
v 3.9853592180436053 2.355688179670802 -2.161111818660383
v 4.0774192475502886 4.7983029788903488 -6.4153849948536195
v 4.0774192475502886 3.7726700302691656 -7.3501064647327716
v 4.1692606472199358 5.3266266632832657 -5.3742726911197947
v 4.1692606472199358 2.355688179670802 -8.0818693507801349
v 4.4897798561280169 0.86762607815775206 -1.6878659595142649
v 4.4897798561280169 3.7726700302691656 -2.6991371978412908
v 4.5015461706345477 5.3266266632832657 -4.3516031373630808
v 4.5015461706345477 0.73171925509885383 -8.5392210353504474
v 5.0391953103964724 5.3266266632832657 -6.0063171852718638
v 5.0391953215723433 4.7983029788903488 -3.4553426374088572
v 5.0391953252976336 -0.85983627757861836 -1.4328000415455149
v 5.0391953252976336 2.4915950027297002 -2.037251221049909
v 5.0391953252976336 5.5319106320359888 -5.0916137490760134
v 5.0391953252976336 4.5628926513010111 -6.9793137181888873
v 5.0391953252976336 3.3593562139100541 -7.7992105353962229
v 5.0391953252976336 1.9986401173772887 -8.3116979468952454
v 5.0391953252976336 -0.85983627757861836 -8.750427471507674
v 5.5768444799607195 5.3266266632832657 -4.3516031373630808
v 5.5768444799607195 0.73171925509885383 -8.5392210353504474
v 5.5886107944672503 0.86762607815775206 -1.6878659595142649
v 5.5886107944672503 3.7726700302691656 -2.6991371978412908
v 5.9091300033753313 5.3266266632832657 -5.3742726613174723
v 5.9091300033753313 2.355688179670802 -8.0818693507801349
v 6.0009714030449786 4.7983029788903488 -6.4153849948536195
v 6.0009714030449786 3.7726700302691656 -7.3501064647327716
v 6.0930314325516619 2.355688179670802 -2.1611115802418039
v 6.1487573646729388 4.5628926513010111 -3.5644326079975412
v 6.1712547802155413 -0.85983627757861836 -1.6074929107319158
v 6.1712547802155413 -0.85983627757861836 -8.5757346023212726
v 6.5953817629044451 4.7983029788903488 -4.5859781969677256
v 6.5953817629044451 0.86762607815775206 -8.1682422031055744
v 6.6306805872147478 0.73171925509885383 -1.986418711055403
v 6.6306805872147478 3.3593562139100541 -2.9011223186146071
v 6.8345043920700945 4.5628926513010111 -5.6749451030384348
v 6.8345043920700945 2.4915950027297002 -7.5626449454914386
v 6.8899443411057391 3.7726700302691656 -6.7042298186909015
v 6.9319130443756976 1.9986399057325501 -2.4865109790455149
v 7.1447971128647723 3.7726700302691656 -3.8297726977955149
v 7.1897919439499773 -0.85983627757861836 -2.1315712798725408
v 7.1897919439499773 -0.85983627757861836 -8.0516562331806476
v 7.4843545221512713 3.7726700302691656 -4.8748229612003611
v 7.4843545221512713 0.86762607815775206 -7.5223653186451234
v 7.500615146083156 0.73171925509885383 -2.618463264812116
v 7.500615146083156 2.355688179670802 -3.1837810147892283
v 7.6142726206009783 3.3593562139100541 -5.9283070434223459
v 7.6142726206009783 2.355688179670802 -6.8430105317722614
v 7.9440665506546893 2.4915950027297002 -4.1477639545093821
v 8.0029654764359393 -0.85983627757861836 -2.938308702815656
v 8.0029657148545184 -0.85983627757861836 -7.2449188102375324
v 8.1016772054856219 1.9986399057325501 -6.0866743196140574
v 8.1065733694260516 0.86762607815775206 -3.5172726977955149
v 8.1519215368454852 2.355688179670802 -5.1882964540611551
v 8.1519215368454852 0.73171925509885383 -6.6683175433765705
v 8.4461305402939715 0.86762607815775206 -4.5623229612003611
v 8.4842074178879656 0.73171925509885383 -5.6456481088291453
v 8.5189337991898455 -0.85983627757861836 -3.9609781373630808
v 8.5189337991898455 -0.85983627757861836 -6.2222493756901072
v 8.7026164793198504 -0.85983627757861836 -5.091613756526594
vn -0.99426311254501343 0.10682496428489685 0.0054099126718938351
vn -0.94484430551528931 0.11411035805940628 0.30699846148490906
vn -0.94653224945068359 0.097423955798149109 -0.30754712224006653
vn -0.97529524564743042 0.16170527040958405 -0.15050120651721954
vn -0.97147291898727417 0.17520381510257721 0.15982489287853241
vn -0.94973605871200562 0.31257805228233337 -0.017217244952917099
vn -0.87749278545379639 0.16170519590377808 -0.45150619745254517
vn -0.87988078594207764 0.17520380020141602 0.44171643257141113
vn -0.91544568538665771 0.27108085155487061 -0.29744634032249451
vn -0.80755549669265747 0.10682501643896103 0.58003664016723633
vn -0.80119597911834717 0.1068250834941864 -0.58878982067108154
vn -0.89819103479385376 0.32875877618789673 0.29183989763259888
vn -0.84867614507675171 0.45134234428405762 -0.2757515013217926
vn -0.77847272157669067 0.31257796287536621 -0.5443117618560791
vn -0.70056802034378052 0.16170527040958405 0.69502222537994385
vn -0.75823241472244263 0.31257802248001099 0.57217001914978027
vn -0.85052323341369629 0.51888829469680786 0.085820846259593964
vn -0.69199550151824951 0.17520377039909363 -0.70031839609146118
vn -0.58498919010162354 0.097424007952213287 0.80516844987869263
vn -0.58394598960876465 0.11411034315824509 -0.80373245477676392
vn -0.73853194713592529 0.51888829469680786 0.43049445748329163
vn -0.56577658653259277 0.27108082175254822 0.77872461080551147
vn -0.63764345645904541 0.51888835430145264 -0.56935548782348633
vn -0.70293015241622925 0.67359077930450439 -0.22839581966400146
vn -0.55511265993118286 0.32875874638557434 -0.76404684782028198
vn -0.44451794028282166 0.16170530021190643 0.88105344772338867
vn -0.52451062202453613 0.45134231448173523 0.72192710638046265
vn -0.64984101057052612 0.73015338182449341 0.21114611625671387
vn -0.45220428705215454 0.17520374059677124 -0.87453699111938477
vn -0.30209913849830627 0.10682505369186401 0.94727212190628052
vn -0.31238928437232971 0.10682489722967148 -0.94392871856689453
vn -0.43443471193313599 0.67359071969985962 0.59794819355010986
vn -0.30985930562019348 0.31257805228233337 0.89793217182159424
vn -0.40162387490272522 0.73015344142913818 -0.55278772115707397
vn -0.34444668889045715 0.51888835430145264 -0.78237545490264893
vn -0.41684874892234802 0.89882838726043701 -0.13544237613677979
vn -0.27711001038551331 0.31257805228233337 -0.90857303142547607
vn -0.14819914102554321 0.17520380020141602 0.97331428527832031
vn -0.18120567500591278 0.51888835430145264 0.83541566133499146
vn -0.25762665271759033 0.89882838726043701 0.3545927107334137
vn -0.1582476794719696 0.16170518100261688 -0.97406834363937378
vn -2.0887491736232278E-09 0.89882844686508179 -0.43830063939094543
vn 0 0.73015338182449341 0.68328326940536499
vn 0 0.11411047726869583 0.99346804618835449
vn -7.0068551849544747E-08 0.32875877618789673 0.94441390037536621
vn 0 1 1.0710635045541039E-08
vn -1.7745334091046061E-09 0.67359077930450439 -0.7391045093536377
vn -1.513765113259069E-09 0.45134234428405762 -0.89235085248947144
vn 0 0.27108082175254822 -0.96255660057067871
vn 0 0.097423858940601349 -0.99524295330047607
vn 0.25762665271759033 0.89882838726043701 0.3545927107334137
vn 0.15824766457080841 0.16170519590377808 -0.97406834363937378
vn 0.14819911122322083 0.17520375549793243 0.97331428527832031
vn 0.18120564520359039 0.51888835430145264 0.83541572093963623
vn 0.41684874892234802 0.89882838726043701 -0.13544236123561859
vn 0.27710998058319092 0.31257805228233337 -0.90857309103012085
vn 0.40162387490272522 0.73015344142913818 -0.55278772115707397
vn 0.34444668889045715 0.51888835430145264 -0.78237545490264893
vn 0.30985924601554871 0.31257805228233337 0.89793217182159424
vn 0.43443471193313599 0.67359071969985962 0.59794819355010986
vn 0.30209910869598389 0.10682503879070282 0.94727218151092529
vn 0.31238928437232971 0.10682489722967148 -0.94392871856689453
vn 0.64984101057052612 0.73015338182449341 0.21114614605903625
vn 0.45220425724983215 0.17520374059677124 -0.87453699111938477
vn 0.44451794028282166 0.16170525550842285 0.88105344772338867
vn 0.52451068162918091 0.45134240388870239 0.7219269871711731
vn 0.70293021202087402 0.67359077930450439 -0.22839580476284027
vn 0.55511265993118286 0.32875877618789673 -0.76404690742492676
vn 0.63764345645904541 0.51888829469680786 -0.5693555474281311
vn 0.56577658653259277 0.27108088135719299 0.77872461080551147
vn 0.73853194713592529 0.51888829469680786 0.43049445748329163
vn 0.58498919010162354 0.097423948347568512 0.80516844987869263
vn 0.58394593000411987 0.11411035805940628 -0.80373251438140869
vn 0.85052323341369629 0.51888829469680786 0.085820846259593964
vn 0.69199550151824951 0.17520378530025482 -0.70031839609146118
vn 0.70056802034378052 0.16170524060726166 0.69502222537994385
vn 0.75823241472244263 0.31257811188697815 0.57217001914978027
vn 0.84867614507675171 0.45134234428405762 -0.2757515013217926
vn 0.77847272157669067 0.31257796287536621 -0.54431170225143433
vn 0.89819103479385376 0.32875877618789673 0.29183989763259888
vn 0.80755555629730225 0.10682498663663864 0.58003658056259155
vn 0.80119603872299194 0.10682516545057297 -0.58878970146179199
vn 0.91544568538665771 0.27108085155487061 -0.29744634032249451
vn 0.87988084554672241 0.17520378530025482 0.44171640276908875
vn 0.94973605871200562 0.31257805228233337 -0.017217246815562248
vn 0.87749278545379639 0.16170527040958405 -0.45150613784790039
vn 0.97147291898727417 0.17520375549793243 0.15982484817504883
vn 0.97529524564743042 0.16170525550842285 -0.15050116181373596
vn 0.94484430551528931 0.11411033570766449 0.30699840188026428
vn 0.94653230905532837 0.097423948347568512 -0.30754700303077698
vn 0.99426311254501343 0.10682487487792969 0.0054099215194582939
f 25//25 14//14 23//23
f 9//9 13//13 14//14
f 24//24 23//23 13//13
f 24//24 36//36 34//34
f 46//46 42//42 36//36
f 47//47 34//34 42//42
f 47//47 48//48 35//35
f 49//49 37//37 48//48
f 25//25 35//35 37//37
f 12//12 16//16 21//21
f 22//22 27//27 16//16
f 32//32 21//21 27//27
f 32//32 40//40 28//28
f 46//46 36//36 40//40
f 24//24 28//28 36//36
f 24//24 13//13 17//17
f 9//9 6//6 13//13
f 12//12 17//17 6//6
f 45//45 59//59 54//54
f 70//70 66//66 59//59
f 60//60 54//54 66//66
f 60//60 51//51 43//43
f 46//46 40//40 51//51
f 32//32 43//43 40//40
f 32//32 27//27 39//39
f 22//22 33//33 27//27
f 45//45 39//39 33//33
f 80//80 85//85 74//74
f 83//83 78//78 85//85
f 67//67 74//74 78//78
f 67//67 55//55 63//63
f 46//46 51//51 55//55
f 60//60 63//63 51//51
f 60//60 66//66 71//71
f 70//70 77//77 66//66
f 80//80 71//71 77//77
f 68//68 56//56 58//58
f 49//49 48//48 56//56
f 47//47 58//58 48//48
f 47//47 42//42 57//57
f 46//46 55//55 42//42
f 67//67 57//57 55//55
f 67//67 78//78 69//69
f 83//83 79//79 78//78
f 68//68 69//69 79//79
f 62//62 52//52 64//64
f 49//49 56//56 52//52
f 68//68 64//64 56//56
f 68//68 79//79 75//75
f 83//83 86//86 79//79
f 82//82 75//75 86//86
f 11//11 7//7 18//18
f 9//9 14//14 7//7
f 25//25 18//18 14//14
f 25//25 37//37 29//29
f 49//49 41//41 37//37
f 31//31 29//29 41//41
f 31//31 41//41 50//50
f 49//49 52//52 41//41
f 62//62 50//50 52//52
f 1//1 4//4 3//3
f 9//9 7//7 4//4
f 11//11 3//3 7//7
f 10//10 15//15 8//8
f 22//22 16//16 15//15
f 12//12 8//8 16//16
f 12//12 6//6 5//5
f 9//9 4//4 6//6
f 1//1 5//5 4//4
f 30//30 26//26 19//19
f 22//22 15//15 26//26
f 10//10 19//19 15//15
f 61//61 65//65 53//53
f 70//70 59//59 65//65
f 45//45 53//53 59//59
f 45//45 33//33 38//38
f 22//22 26//26 33//33
f 30//30 38//38 26//26
f 81//81 76//76 72//72
f 70//70 65//65 76//76
f 61//61 72//72 65//65
f 91//91 88//88 87//87
f 83//83 85//85 88//88
f 80//80 87//87 85//85
f 80//80 77//77 84//84
f 70//70 76//76 77//77
f 81//81 84//84 76//76
f 82//82 86//86 90//90
f 83//83 88//88 86//86
f 91//91 90//90 88//88
f 25//25 23//23 35//35
f 24//24 34//34 23//23
f 47//47 35//35 34//34
f 12//12 21//21 17//17
f 32//32 28//28 21//21
f 24//24 17//17 28//28
f 45//45 54//54 39//39
f 60//60 43//43 54//54
f 32//32 39//39 43//43
f 80//80 74//74 71//71
f 67//67 63//63 74//74
f 60//60 71//71 63//63
f 68//68 58//58 69//69
f 47//47 57//57 58//58
f 67//67 69//69 57//57
f 82//82 73//73 75//75
f 62//62 64//64 73//73
f 68//68 75//75 64//64
f 11//11 18//18 20//20
f 25//25 29//29 18//18
f 31//31 20//20 29//29
f 10//10 8//8 2//2
f 12//12 5//5 8//8
f 1//1 2//2 5//5
f 61//61 53//53 44//44
f 45//45 38//38 53//53
f 30//30 44//44 38//38
f 91//91 87//87 89//89
f 80//80 84//84 87//87
f 81//81 89//89 84//84
f 14//14 13//13 23//23
f 36//36 42//42 34//34
f 48//48 37//37 35//35
f 16//16 27//27 21//21
f 40//40 36//36 28//28
f 13//13 6//6 17//17
f 59//59 66//66 54//54
f 51//51 40//40 43//43
f 27//27 33//33 39//39
f 85//85 78//78 74//74
f 55//55 51//51 63//63
f 66//66 77//77 71//71
f 56//56 48//48 58//58
f 42//42 55//55 57//57
f 78//78 79//79 69//69
f 52//52 56//56 64//64
f 79//79 86//86 75//75
f 7//7 14//14 18//18
f 37//37 41//41 29//29
f 41//41 52//52 50//50
f 4//4 7//7 3//3
f 15//15 16//16 8//8
f 6//6 4//4 5//5
f 26//26 15//15 19//19
f 65//65 59//59 53//53
f 33//33 26//26 38//38
f 76//76 65//65 72//72
f 88//88 85//85 87//87
f 77//77 76//76 84//84
f 86//86 88//88 90//90
f 23//23 34//34 35//35
f 21//21 28//28 17//17
f 54//54 43//43 39//39
f 74//74 63//63 71//71
f 58//58 57//57 69//69
f 73//73 64//64 75//75
f 18//18 29//29 20//20
f 8//8 5//5 2//2
f 53//53 38//38 44//44
f 87//87 84//84 89//89
